<svg xmlns="http://www.w3.org/2000/svg" viewBox="0 0 1000 872.87"><g data-name="Layer 2"><path d="M69.74 721.85C35.36 721.85 0 749.41 0 797.64c0 44.09 31.09 75.23 69.74 75.23 31.91 0 46.13-21.42 46.13-21.42v9.34c0 4.41 4.17 9.34 9.34 9.34h23.06v-145h-32.4v18.4s-14.34-21.69-46.13-21.69Zm5.77 29.64c28.31 0 43.15 24.89 43.15 46.13 0 23.65-17.63 46.11-43.09 46.11C54.29 843.74 33 826.5 33 797.31 33 771 51.31 751.5 75.51 751.5ZM193.3 870.12a9.07 9.07 0 0 1-9.34-9.34V725.15h32.4v17.94c7.34-11 21.69-21.28 43.7-21.28 36 0 55.15 28.69 55.15 55.51v92.81H292.7a9.92 9.92 0 0 1-9.88-9.88v-75.79c0-14.87-9.11-32.93-30.18-32.93-22.73 0-36.27 21.48-36.27 41.71v76.88Zm216.37-148.27c-34.38 0-69.74 27.55-69.74 75.78 0 44.09 31.09 75.23 69.74 75.23 31.91 0 46.13-21.42 46.13-21.42v9.34c0 4.41 4.17 9.34 9.34 9.34h23.06V652.66h-32.4v90.88s-14.34-21.69-46.13-21.69Zm5.77 29.64c28.31 0 43.15 24.89 43.15 46.13 0 23.65-17.63 46.11-43.09 46.11-21.29 0-42.61-17.24-42.61-46.42 0-26.31 18.35-45.81 42.55-45.81Zm117.78 118.63a9.07 9.07 0 0 1-9.34-9.34V725.15h32.4v24.16c5.58-13.54 17.61-25.81 39-25.81a67.63 67.63 0 0 1 11.53 1.1v33.5a46.63 46.63 0 0 0-15.38-2.75c-22.73 0-35.15 21.48-35.15 41.71v73.06Zm270.18 0a9.07 9.07 0 0 1-9.34-9.34V725.15h32.4v145Zm118.07-148.27c-34.39 0-69.74 27.55-69.74 75.78 0 44.09 31.09 75.23 69.74 75.23 31.91 0 46.13-21.42 46.13-21.42v9.34c0 4.41 4.17 9.34 9.34 9.34H1000V652.66h-32.4v90.88s-14.34-21.69-46.13-21.69Zm5.77 29.64c28.31 0 43.15 24.89 43.15 46.13 0 23.65-17.63 46.11-43.09 46.11-21.29 0-42.61-17.24-42.61-46.42 0-26.31 18.31-45.81 42.55-45.81Z"/><circle cx="810.01" cy="672.45" r="21.43"/><path d="M692.26 721.81c-36 0-75.57 26.88-75.57 75.57 0 44.37 33.7 75.5 75.5 75.5 51.51 0 76.66-41.41 76.66-75.22 0-41.48-32.39-75.85-76.58-75.85Zm.12 30.26c24.9 0 43.48 20.07 43.48 45.41 0 25.78-19.72 45.67-43.4 45.67-22 0-43.36-17.89-43.36-45.23 0-27.8 20.33-45.84 43.29-45.84Z"/><path d="M744.06 168.84 827 25.24a16.84 16.84 0 0 0-6.09-23A16.62 16.62 0 0 0 798 8.38l-84 145.45c-64.08-29.26-136.2-45.58-213.77-45.58s-149.66 16.32-213.73 45.58l-84-145.45a16.79 16.79 0 0 0-29 16.86l82.9 143.6C113.41 246.3 16.59 391 .6 560.37h999.33C983.94 391 887.12 246.3 744.06 168.84ZM270.83 420a41.88 41.88 0 1 1 41.88-41.88A41.9 41.9 0 0 1 270.83 420Zm458.76 0a41.88 41.88 0 1 1 41.88-41.88A41.9 41.9 0 0 1 729.59 420Z" style="fill:#32de84"/></g></svg>