<svg xmlns="http://www.w3.org/2000/svg" viewBox="0 0 2500 676.76"><defs><style>.cls-1{fill:#b52e31}</style></defs><g id="Layer_2" data-name="Layer 2"><g id="Layer_1-2" data-name="Layer 1"><path d="M735.35 502V194.34h39.55l188 247.56V194.34h37.6V502h-39.56l-188-250v250Zm571.29-12.21a228.3 228.3 0 0 1-80.08 14.16q-167 0-167-160.16 0-151.61 161.13-151.86c30.76 0 59.57 4.39 85.94 12.7v34.18a223.48 223.48 0 0 0-81.54-15.14c-84 0-126 40-126 119.14 0 85.45 41.5 127.93 124 127.93 13.18 0 27.83-2 43.95-5.37v-103h39.55v127.38Zm63.48-106.45v-189h39.55v189c0 59.08 29.3 88.87 88.38 88.87 58.59 0 88.38-29.79 88.38-88.87v-189H1626v189c0 80.57-42.48 121.09-127.93 121.09s-127.95-40.56-127.95-121.13Zm366.21-189v275.39h161.13V502h-200.68V194.34ZM1954.59 502h-41.5l152.83-348.14L2218.75 502h-43.95l-39.55-96.68h-101.56l10.74-32.32h77.64l-57.62-139.16L1954.59 502Zm306.64 0V194.34h131.35c58.59 0 87.89 24.41 87.89 73.73 0 40-28.81 69.82-85.94 88.87L2500 502h-52.25l-97.65-138.23v-25.88c58.59-9.28 88.38-31.74 88.38-67.87 0-28.32-16.11-42.48-48.83-42.48h-87.89V502Z" class="cls-1"/><path d="M0 112.3 314.94 0l323.24 110.35-52.25 416.5-271 149.9L48.34 528.81Z" style="fill:#e23237"/><path d="M638.18 110.35 314.94 0v676.76l271-149.9 52.25-416.5Z" class="cls-1"/><path d="M315.43 79.1 119.14 515.62l73.24-1.46 39.55-98.63h175.3l43 99.61L520 516.6 315.43 79.1Zm.49 140.14 66.41 138.67H257.81Z" style="fill:#fff"/></g></g></svg>