<svg xmlns="http://www.w3.org/2000/svg" viewBox="0 0 284.3 170"><path fill="#252f3e" d="M80.1 61.7c0 3.5.4 6.3 1 8.4.8 2.1 1.7 4.3 3 6.8.5.8.7 1.5.7 2.2 0 .9-.6 1.9-1.8 2.8l-6 4c-.9.6-1.7.9-2.5.9-.9 0-1.9-.5-2.8-1.3-1.3-1.4-2.5-2.9-3.4-4.4-.9-1.6-1.9-3.4-2.9-5.6-7.4 8.7-16.6 13-27.8 13-7.9 0-14.3-2.3-18.9-6.8s-7-10.6-7-18.2c0-8 2.8-14.6 8.6-19.5s13.4-7.4 23.2-7.4c3.2 0 6.5.3 10 .8s7.1 1.2 10.9 2.1v-6.9c0-7.2-1.5-12.2-4.4-15.1-3-2.9-8.1-4.3-15.4-4.3-3.3 0-6.7.4-10.2 1.2-3.5.9-6.9 1.9-10.2 3.2-1.5.7-2.6 1-3.3 1.2s-1.1.3-1.5.3c-1.3 0-2-.9-2-2.9v-4.6c0-1.5.2-2.6.7-3.3s1.3-1.3 2.6-2C24 4.5 27.9 3.1 32.6 2 37.2.8 42.1.2 47.3.2c11.3 0 19.5 2.6 24.8 7.7 5.2 5.1 7.8 12.9 7.8 23.3v30.6h.2zM41.7 76.1c3.1 0 6.3-.6 9.7-1.7s6.4-3.2 9-6.1c1.5-1.8 2.6-3.8 3.2-6.1s.9-5 .9-8.2v-4c-2.7-.7-5.7-1.2-8.7-1.6s-6-.6-8.9-.6c-6.3 0-11 1.2-14.1 3.8s-4.6 6.1-4.6 10.9c0 4.4 1.1 7.8 3.5 10 2.4 2.5 5.7 3.6 10 3.6zm75.9 10.2c-1.7 0-2.8-.3-3.6-.9s-1.4-1.9-2-3.7L89.9 8.6c-.6-1.9-.9-3.1-.9-3.8 0-1.5.8-2.4 2.3-2.4h9.3c1.8 0 3 .3 3.7.9.8.6 1.3 1.9 1.9 3.7L122 69.7l14.7-62.6c.5-1.9 1-3.1 1.8-3.7s2.1-.9 3.8-.9h7.6c1.8 0 3 .3 3.8.9s1.4 1.9 1.8 3.7l14.9 63.3 16.4-63.3c.6-1.9 1.2-3.1 1.9-3.7.8-.6 2-.9 3.7-.9h8.8c1.5 0 2.4.8 2.4 2.4 0 .5-.1.9-.2 1.5s-.3 1.3-.7 2.4l-22.8 73.1c-.6 1.9-1.2 3.1-2 3.7s-2 .9-3.6.9h-8.1c-1.8 0-3-.3-3.8-.9-.8-.7-1.4-1.9-1.8-3.8l-14.7-61-14.6 60.9c-.5 1.9-1 3.1-1.8 3.8s-2.1.9-3.8.9h-8.1zm121.5 2.6c-4.9 0-9.8-.6-14.6-1.7-4.7-1.1-8.4-2.4-10.9-3.8-1.5-.9-2.6-1.8-2.9-2.6-.4-.9-.6-1.8-.6-2.6v-4.8c0-2 .8-2.9 2.2-2.9.6 0 1.1.1 1.7.3s1.4.6 2.4.9c3.2 1.4 6.7 2.6 10.4 3.3 3.8.8 7.5 1.1 11.3 1.1 6 0 10.6-1 13.8-3.1s4.9-5.1 4.9-9c0-2.6-.9-4.8-2.6-6.6s-4.9-3.4-9.5-4.9L231 48.1c-6.9-2.2-12-5.4-15.1-9.6s-4.7-8.8-4.7-13.7c0-4 .9-7.5 2.6-10.5s4-5.7 6.8-7.8c2.8-2.2 6.1-3.8 9.8-4.9S238.1 0 242.3 0c2.1 0 4.3.1 6.3.4 2.2.3 4.2.7 6.1 1 1.9.5 3.7.9 5.4 1.5s3 1.1 4 1.7c1.3.8 2.3 1.5 2.8 2.4.6.8.9 1.8.9 3.1v4.4c0 2-.8 3-2.2 3-.8 0-2-.4-3.6-1.1-5.4-2.5-11.4-3.7-18.2-3.7-5.4 0-9.6.9-12.6 2.6-2.9 1.8-4.4 4.5-4.4 8.4 0 2.6.9 4.9 2.8 6.7S235 34 240 35.6l13.4 4.3c6.8 2.2 11.7 5.2 14.7 9.1s4.3 8.3 4.3 13.2c0 4.1-.9 7.8-2.5 11-1.7 3.2-4 6.1-6.9 8.3-2.9 2.4-6.4 4.1-10.5 5.3-4.1 1.4-8.5 2.1-13.4 2.1z"/><path fill="#f90" d="M257 134.8c-31.1 23-76.3 35.2-115.2 35.2-54.5 0-103.5-20.1-140.6-53.6-2.9-2.6-.3-6.2 3.2-4.2 40.1 23.3 89.5 37.3 140.7 37.3 34.5 0 72.4-7.2 107.3-21.9 5.3-2.3 9.7 3.4 4.6 7.2zm13-14.7c-4-5.1-26.3-2.5-36.4-1.2-3 .4-3.5-2.3-.8-4.3 17.8-12.5 47-8.9 50.4-4.7 3.4 4.3-.9 33.5-17.6 47.5-2.6 2.2-5 1-3.9-1.8 3.8-9.4 12.2-30.5 8.3-35.5z"/></svg>