<svg xmlns="http://www.w3.org/2000/svg" id="Layer_1" data-name="Layer 1" viewBox="0 0 470.23 70"><defs><linearGradient id="linear-gradient" x1="-1023.38" x2="-1037.99" y1="-19.08" y2="24.08" gradientTransform="matrix(1.56 0 0 1.56 1631.81 35)" gradientUnits="userSpaceOnUse"><stop offset="0" stop-color="#114a8b"/><stop offset="1" stop-color="#0669bc"/></linearGradient><linearGradient id="linear-gradient-2" x1="-1018.82" x2="-1022.2" y1="1.04" y2="2.18" gradientTransform="matrix(1.56 0 0 1.56 1631.81 35)" gradientUnits="userSpaceOnUse"><stop offset="0" stop-opacity=".3"/><stop offset=".07" stop-opacity=".2"/><stop offset=".32" stop-opacity=".1"/><stop offset=".62" stop-opacity=".05"/><stop offset="1" stop-opacity="0"/></linearGradient><linearGradient id="linear-gradient-3" x1="-1020.57" x2="-1004.53" y1="-20.38" y2="22.35" gradientTransform="matrix(1.56 0 0 1.56 1631.81 35)" gradientUnits="userSpaceOnUse"><stop offset="0" stop-color="#3ccbf4"/><stop offset="1" stop-color="#2892df"/></linearGradient><style>.cls-5{fill:#36baed}</style></defs><path d="M24.77 0h22L23.93 67.61A3.51 3.51 0 0 1 20.61 70H3.5A3.5 3.5 0 0 1 0 66.5a3.55 3.55 0 0 1 .18-1.12l21.26-63A3.52 3.52 0 0 1 24.77 0Z" style="fill:url(#linear-gradient)"/><path d="M56.71 45.35H21.85A1.61 1.61 0 0 0 20.24 47a1.63 1.63 0 0 0 .51 1.19l22.4 20.9a3.51 3.51 0 0 0 2.4 1h19.74Z" style="fill:#0078d4"/><path d="M24.77 0a3.46 3.46 0 0 0-3.33 2.43L.21 65.32a3.49 3.49 0 0 0 2.11 4.47 3.43 3.43 0 0 0 1.19.21h17.55a3.75 3.75 0 0 0 2.88-2.45l4.23-12.47 15.12 14.1a3.64 3.64 0 0 0 2.25.82h19.67l-8.63-24.65H31.44L46.83 0Z" style="fill:url(#linear-gradient-2)"/><path d="M52.84 2.38A3.5 3.5 0 0 0 49.53 0H25a3.5 3.5 0 0 1 3.31 2.38l21.27 63A3.49 3.49 0 0 1 46.29 70h24.5a3.5 3.5 0 0 0 3.5-3.5 3.55 3.55 0 0 0-.18-1.12Z" style="fill:url(#linear-gradient-3)"/><path d="M127.23 56.24h-6.62v-26q0-3.19.4-7.82h-.12a27 27 0 0 1-1.09 3.78l-12 30.06h-4.6l-12-29.83a28.58 28.58 0 0 1-1.07-4H90c.15 1.6.23 4.23.23 7.87v26h-6.18V16h9.39L104 42.81a38.06 38.06 0 0 1 1.57 4.6h.14c.69-2.11 1.26-3.68 1.69-4.71L118.17 16h9.06Zm11.35-32.98a3.92 3.92 0 0 1-2.74-1 3.43 3.43 0 0 1-1.13-2.64 3.52 3.52 0 0 1 1.13-2.66 3.87 3.87 0 0 1 2.74-1.07 4 4 0 0 1 2.8 1.07 3.47 3.47 0 0 1 1.15 2.66 3.4 3.4 0 0 1-1.15 2.59 3.89 3.89 0 0 1-2.8 1.05Zm3.22 33h-6.5V27.53h6.5Zm27.95-1.34a16 16 0 0 1-8.16 2 13.84 13.84 0 0 1-10.32-4 14.16 14.16 0 0 1-3.93-10.36q0-7.1 4.22-11.4t11.29-4.31a16.42 16.42 0 0 1 6.93 1.38v6.05a10.52 10.52 0 0 0-6.4-2.24 8.87 8.87 0 0 0-6.75 2.79 10.21 10.21 0 0 0-2.63 7.31 9.75 9.75 0 0 0 2.48 7 8.83 8.83 0 0 0 6.66 2.58 10.44 10.44 0 0 0 6.62-2.5Zm22-21.2a5.41 5.41 0 0 0-3.39-.92 5.8 5.8 0 0 0-4.82 2.61 11.65 11.65 0 0 0-1.94 7.09v13.74h-6.51V27.53h6.51v5.91h.11a10.07 10.07 0 0 1 2.93-4.72 6.63 6.63 0 0 1 4.42-1.7 5.54 5.54 0 0 1 2.69.53Zm15.72 23.19q-6.65 0-10.61-4t-4-10.67q0-7.23 4.14-11.3t11.14-4.07q6.74 0 10.49 4t3.76 11q0 6.87-4 11t-10.92 4.04Zm.31-24.91a7.43 7.43 0 0 0-6 2.67 11.11 11.11 0 0 0-2.21 7.34 10.49 10.49 0 0 0 2.24 7.11 7.55 7.55 0 0 0 6 2.6 7.15 7.15 0 0 0 5.9-2.56q2.07-2.55 2.07-7.26t-2.07-7.32a7.11 7.11 0 0 0-5.93-2.58Zm18.36 23.34v-6a13 13 0 0 0 8.05 2.77c3.92 0 5.89-1.16 5.89-3.48a2.69 2.69 0 0 0-.51-1.66 4.76 4.76 0 0 0-1.36-1.22 10.27 10.27 0 0 0-2-1l-2.59-1a27.23 27.23 0 0 1-3.19-1.49 9.3 9.3 0 0 1-2.35-1.78 6.6 6.6 0 0 1-1.42-2.26 8.24 8.24 0 0 1-.47-2.94 6.77 6.77 0 0 1 1-3.66 8.55 8.55 0 0 1 2.59-2.62 12.64 12.64 0 0 1 3.76-1.63 17.4 17.4 0 0 1 4.35-.55 19.83 19.83 0 0 1 7.11 1.24v5.69a12 12 0 0 0-6.95-2.07 9 9 0 0 0-2.23.25 5.76 5.76 0 0 0-1.7.7 3.41 3.41 0 0 0-1.12 1.08 2.51 2.51 0 0 0-.4 1.39 2.89 2.89 0 0 0 .4 1.57 3.49 3.49 0 0 0 1.16 1.13 9.67 9.67 0 0 0 1.85.9c.72.27 1.55.57 2.48.88a36.33 36.33 0 0 1 3.33 1.55 11.14 11.14 0 0 1 2.51 1.78 6.88 6.88 0 0 1 1.59 2.3 7.7 7.7 0 0 1 .56 3.1 7 7 0 0 1-1 3.81 8.43 8.43 0 0 1-2.69 2.69 12.65 12.65 0 0 1-3.88 1.59 20.49 20.49 0 0 1-4.64.51 19.51 19.51 0 0 1-8.13-1.57Zm38.18 1.57q-6.65 0-10.61-4t-4-10.67q0-7.23 4.13-11.3T265 26.85q6.74 0 10.49 4t3.76 11q0 6.87-4.06 11t-10.87 4.06Zm.31-24.91a7.43 7.43 0 0 0-6 2.67 11.11 11.11 0 0 0-2.22 7.34 10.49 10.49 0 0 0 2.25 7.11 7.52 7.52 0 0 0 6 2.6 7.15 7.15 0 0 0 5.9-2.56c1.38-1.7 2.06-4.12 2.06-7.26s-.68-5.6-2.06-7.32a7.11 7.11 0 0 0-5.93-2.58Zm33.67-13a6 6 0 0 0-3-.76q-4.74 0-4.74 5.36v3.9h6.67v5.1h-6.64v23.64h-6.51V32.63h-4.91v-5.1h4.91v-4.66a9.06 9.06 0 0 1 3-7.16 10.81 10.81 0 0 1 7.43-2.62 11 11 0 0 1 3.82.53Z" class="cls-5"/><path d="M315.2 55.93a11.25 11.25 0 0 1-5 1q-8.37 0-8.36-8v-16.3H297v-5.1h4.8v-6.65l6.5-1.85v8.5h6.88v5.1h-6.88V47a5.62 5.62 0 0 0 .93 3.64 3.83 3.83 0 0 0 3.08 1.1 4.48 4.48 0 0 0 2.87-1Zm49.41.31h-7.32L353.67 46h-15.81l-3.48 10.23h-7.29L342.15 16h7.51Zm-12.7-15.67-5.58-16a19.31 19.31 0 0 1-.54-2.53h-.11a16.19 16.19 0 0 1-.56 2.53l-5.52 16Zm39.36-10.32-15.51 20.92h15.45v5.07h-24.56V53.8l15.84-21.2h-14.33v-5.07h23.11Zm29.4 25.99h-6.5V51.7h-.11a9.36 9.36 0 0 1-8.81 5.21q-10.19 0-10.18-12.22V27.53h6.51V44q0 7.74 6 7.74a6 6 0 0 0 4.75-2.14 8.13 8.13 0 0 0 1.84-5.6V27.53h6.5Zm22.26-22.52a5.46 5.46 0 0 0-3.4-.92 5.81 5.81 0 0 0-4.82 2.61 11.65 11.65 0 0 0-1.93 7.09v13.74h-6.51V27.53h6.51v5.91h.11a9.92 9.92 0 0 1 2.93-4.72 6.63 6.63 0 0 1 4.42-1.7 5.57 5.57 0 0 1 2.69.53Zm27.3 9.93h-19.57a8.25 8.25 0 0 0 2.45 6.14 9.14 9.14 0 0 0 6.44 2.21 14.17 14.17 0 0 0 8.45-2.8v5.25q-3.93 2.46-10.38 2.46T447.67 53q-3.6-3.9-3.6-11a15.34 15.34 0 0 1 4-10.93 13 13 0 0 1 9.86-4.22q5.89 0 9.12 3.79t3.22 10.52Zm-6.23-4.6a8.36 8.36 0 0 0-1.66-5.45 5.52 5.52 0 0 0-4.48-2 6.31 6.31 0 0 0-4.76 2.05 9.27 9.27 0 0 0-2.39 5.35Z" class="cls-5"/></svg>