<svg xmlns="http://www.w3.org/2000/svg" viewBox="0 0 240.58 80.44"><defs><style>.cls-1{fill:#c20000}</style></defs><g id="Layer_2" data-name="Layer 2"><g id="Layer_1-2" data-name="Layer 1"><path d="M64.58 15.11c.24 3.49.51 7 .69 10.47 0 .66.67 1.76-.61 1.94s-1.09-1-1.32-1.66a43.42 43.42 0 0 0-4-9c-9.6-15.52-32.88-15.3-41.4.84a48.56 48.56 0 0 0-1.72 43.17c6.89 16.05 29.34 20 42 7.89a57.46 57.46 0 0 0 6.28-7.23c.42-.57.77-1.62 1.83-.92s.26 1.37-.09 2c-6.67 12.63-20.58 19.14-34.69 17.61C11.39 78-2.34 59.3.33 36.93c2.12-17.77 13-30.31 29.38-34.19a33.77 33.77 0 0 1 23.8 3c4.66 2.37 5.8 2 8.06-2.73.3-.63.4-1.37 1.36-1.23s.79 1 .83 1.63c.3 3.92.56 7.81.82 11.7Zm79.54 36.15c0 5.7-.15 11.4 0 17.09.21 6.33 2.38 8.27 8.74 8.33h1.8c.6 0 .85.38.85 1s-.32.88-.91.9h-26.69c-.8 0-2.3.74-2.25-1 0-1.4 1.36-.79 2.14-.88 4.66-.54 7-2.63 7.07-7.31.21-12.09.14-24.18.23-36.28 0-1.5-.59-1.88-2-1.83-2 .08-4 0-6 0-1.34.05-1.94-.27-2-1.79s.56-2 2.07-2c2.48.07 5.57.79 7.28-.4s.4-4.45.66-6.81C136.62 8 145-.21 156.23 0a16.35 16.35 0 0 1 11.58 4.84c1.63 1.62 2.63 3.59 1.6 6-1.38 3.17-4.77 3.89-7.33 1.42a46.88 46.88 0 0 1-3.92-4.9C156 4.62 153.41 3.13 149.83 4s-4.89 3.77-5.32 7.14c-.62 4.87-.35 9.78-.53 14.67-.06 1.58.66 1.79 2 1.76 2.8-.07 5.6 0 8.4 0 1.34 0 2.79-.44 2.73 1.92 0 2.17-1.36 1.77-2.6 1.78-2.6 0-5.21.13-7.79 0-2-.13-2.78.44-2.72 2.61.15 5.79.05 11.59.05 17.39Z" class="cls-1"/><path d="M170.52 51.07c0-5.8-.06-11.59 0-17.39 0-1.76-.36-2.58-2.3-2.41s-3.8 0-5.69.06c-1.38.07-2-.34-1.92-1.83 0-1.33.24-2 1.79-1.94 2.58.07 5.9.85 7.54-.43s.4-4.85.74-7.4c1.61-12 9.9-19.95 21-19.71a16.1 16.1 0 0 1 11.77 5.08c1.69 1.79 2.51 3.9 1.09 6.27-1.69 2.79-4.63 3.21-7.07.85a41.82 41.82 0 0 1-3.73-4.67c-2.17-2.82-4.79-4.45-8.52-3.49s-4.87 3.79-5.29 7.16c-.62 4.87-.34 9.78-.53 14.67-.06 1.62.73 1.75 2 1.72 3-.06 6 .05 9 0 1.52-.05 2.11.35 2.09 2s-.72 1.8-2 1.77c-3-.06-6 .05-9 0-1.56-.05-2.08.45-2.07 2 .09 11.69 0 23.39.19 35.08.11 6.32 2.37 8.23 8.76 8.3h1.8c.6 0 .82.42.81 1s-.37.86-.94.87h-26.69c-.77 0-2.07.58-2.21-.73-.18-1.68 1.31-1 2.16-1.14 4.64-.54 6.9-2.64 7-7.34.2-6.09 0-12.19 0-18.28ZM120.2 69.18c-.76.67-1.5 1.33-2.24 2-1.14 1-2.27 2.1-4 1.5-1.94-.7-1.64-2.52-1.85-4.05-.05-.39 0-.8 0-1.2-.38-9.88.27-19.77-.38-29.65-.34-5.07-3-8.38-7.69-10a26.92 26.92 0 0 0-12.11-1.2c-5 .6-9.51 2.25-12.74 6.38-1.87 2.39-2.84 5.07-2 8.11a4.42 4.42 0 0 0 8.66-.55 27.44 27.44 0 0 0 .15-4.21 6 6 0 0 1 3.62-5.73 8.82 8.82 0 0 1 12.78 5.7c.38 1.54.41 3.17.71 4.73.56 2.92-.52 4.29-3.43 5.37-7.17 2.66-14.5 5.2-20.28 10.57a13.84 13.84 0 0 0-1.6 18.46c4.11 5.13 11.39 5.87 17.52 1.72 2.47-1.67 4.84-3.48 7.61-5.49.26 1.54.39 2.62.63 3.67a5.39 5.39 0 0 0 4.09 4.32c4.54 1.18 12.87-5.23 13-10-.08-.1-.27-.22-.45-.45Zm-18.46-.35c-3.38 2.28-6.6 5-11.1 4.34s-7.58-6.37-6.28-11.55a11.6 11.6 0 0 1 4.56-6.46c3.78-2.88 8.22-4.41 12.51-6.25 1.52-.65 1.68.07 1.66 1.3v8.08a36.28 36.28 0 0 1 0 4.49c-.3 2.05 1.03 4.45-1.35 6.06Z" class="cls-1"/><path d="M239.66 59.5c-1.53-.55-1.47 1.47-1.93 2.36-5.13 10-16.46 12.06-24.78 4.46-5-4.54-6.82-10.37-7.21-16.9-.12-2 .33-2.63 2.39-2.58 5 .14 10 0 15 0s10-.12 15 .05c2.27.08 2.71-.74 2.35-2.76a28.45 28.45 0 0 0-1.8-6.94c-5.81-12.8-24.08-14.73-34-3.6-8 9-9 27-2 36.76 4.14 5.78 9.69 9.16 16.89 9.34 9.3.23 17.49-6.59 20.29-16.86.3-1.01 1.54-2.7-.2-3.33Zm-33.81-17c.73-4.66 2.72-8.52 7-10.9a10.17 10.17 0 0 1 11.25.5c3.71 2.44 4.72 6.2 5.07 10.31.12 1.39-.68 1.39-1.64 1.38H207.5c-.86-.01-1.88.21-1.65-1.29Z" class="cls-1"/></g></g></svg>