<svg xmlns="http://www.w3.org/2000/svg" viewBox="0 0 212.61 197.63"><defs><style>.cls-1{fill:#32383d}.cls-2{fill:#a5b0b8}</style></defs><g id="Layer_2" data-name="Layer 2"><g id="Layer_1-2" data-name="Layer 1"><path id="path9" d="M165 147.51h-25l1.74-21.07h-12.29l-1.74 21.07H75.9l-1.74-21.07H61.88l1.74 21.07h-25l-14-91.34L59.7 0h84.22L179 56.17ZM136.87 28.12h-22.53l1.53 10.54H87.75l1.53-10.54H66.75l-14.1 28 7 56.17h84.22l7-56.17Zm-12.28 65.62c-2 0-3.49-5.81-3.49-13.08s1.6-13.08 3.49-13.08 3.49 5.81 3.49 13.08-1.53 13.08-3.49 13.08Zm-44.26 1.09c-2 0-3.49-5.81-3.49-13.08s1.6-13.08 3.49-13.08 3.49 5.81 3.49 13.08-1.6 13.08-3.49 13.08Z" class="cls-1"/><g id="g13"><path id="path15" d="m.61 161.53 2.64-5.73a.14.14 0 0 1 .15-.09h.09a.14.14 0 0 1 .15.09l2.61 5.73c.06.12 0 .21-.15.21h-.73c-.12 0-.18-.06-.24-.18l-.42-.91H2.15l-.42.91a.26.26 0 0 1-.24.18H.76a.16.16 0 0 1-.15-.21Zm3.7-1.82-.85-1.88-.85 1.88h1.7Z" class="cls-2"/><path id="path17" d="M7.89 155.95a.14.14 0 0 1 .11-.15h2a1.9 1.9 0 1 1 0 3.79H9v2a.16.16 0 0 1-.15.15h-.78a.16.16 0 0 1-.15-.15v-5.64Zm2.11 2.58a.88.88 0 0 0 .88-.88.85.85 0 0 0-.88-.82H9v1.7h1Z" class="cls-2"/><path id="path19" d="m12.68 161.53 2.64-5.73a.14.14 0 0 1 .15-.09h.09a.14.14 0 0 1 .15.09l2.61 5.73c.06.12 0 .21-.15.21h-.73c-.12 0-.18-.06-.24-.18l-.42-.91h-2.55l-.42.91a.26.26 0 0 1-.24.18h-.73c-.15 0-.21-.12-.15-.21Zm3.67-1.82-.85-1.88-.85 1.88h1.73Z" class="cls-2"/><path id="path21" d="M22.54 155.7a2.91 2.91 0 0 1 2.06.79.14.14 0 0 1 0 .24l-.52.55a.15.15 0 0 1-.21 0 2.14 2.14 0 0 0-1.3-.52 2 2 0 0 0 0 3.94 2 2 0 0 0 1.3-.49.15.15 0 0 1 .21 0l.52.55a.18.18 0 0 1 0 .24 2.84 2.84 0 0 1-2.06.82 3.06 3.06 0 1 1 0-6.13Z" class="cls-2"/><path id="path23" d="M26.58 155.95a.16.16 0 0 1 .15-.15h.79a.16.16 0 0 1 .15.15v2.25h2.76v-2.25a.14.14 0 0 1 .15-.15h.79a.16.16 0 0 1 .15.15v5.64a.16.16 0 0 1-.15.15h-.79a.16.16 0 0 1-.15-.15v-2.34h-2.76v2.34a.14.14 0 0 1-.15.15h-.79a.16.16 0 0 1-.15-.15Z" class="cls-2"/><path id="path25" d="M34 155.95a.14.14 0 0 1 .15-.15h3.46a.16.16 0 0 1 .15.15v.7a.14.14 0 0 1-.15.15h-2.54v1.4h2.09a.16.16 0 0 1 .15.15v.7a.16.16 0 0 1-.15.15h-2.09v1.52h2.52a.16.16 0 0 1 .15.15v.7a.14.14 0 0 1-.15.15h-3.46a.16.16 0 0 1-.15-.15Z" class="cls-2"/></g><g id="g29"><path id="path31" d="M205.54 168.78h-3.19a.3.3 0 0 0-.3.3v.61a.3.3 0 0 0 .3.3h1v3.94a.3.3 0 0 0 .3.3h.67a.3.3 0 0 0 .3-.3V170h1a.3.3 0 0 0 .3-.3v-.61a.39.39 0 0 0-.33-.3Z" class="cls-1"/><path id="path33" d="m212.61 173.85-.85-4.88a.27.27 0 0 0-.27-.24h-.12a.32.32 0 0 0-.27.15l-1.49 3.19-1.49-3.19a.32.32 0 0 0-.27-.15h-.09a.25.25 0 0 0-.27.24l-.88 4.91a.33.33 0 0 0 .06.24.28.28 0 0 0 .21.09h.67a.27.27 0 0 0 .27-.24l.36-2.31 1.09 2.43a.32.32 0 0 0 .27.15h.12a.27.27 0 0 0 .27-.18l1.09-2.43.36 2.31a.29.29 0 0 0 .27.21h.67a.34.34 0 0 0 .24-.09s0-.12 0-.21Z" class="cls-1"/></g><g id="g35"><path id="path37" d="M22.18 189.23a1.28 1.28 0 0 0-.91-.36 1.32 1.32 0 0 0-.88.33 8.64 8.64 0 0 1-5.58 2.09 8.43 8.43 0 0 1 0-16.84 8.7 8.7 0 0 1 5.58 2.12 1.37 1.37 0 0 0 .91.39 1.23 1.23 0 0 0 .91-.42l2.37-2.43a1.28 1.28 0 0 0 .39-1 1.34 1.34 0 0 0-.46-1 13.79 13.79 0 0 0-9.83-3.76A14.68 14.68 0 0 0 0 183a14.55 14.55 0 0 0 14.65 14.59 14 14 0 0 0 9.89-3.94 1.52 1.52 0 0 0 .42-1.06 1.13 1.13 0 0 0-.39-.85l-2.4-2.55Z" class="cls-1"/><path id="path39" d="M42.53 168.33A14.65 14.65 0 1 0 57.16 183a14.52 14.52 0 0 0-14.63-14.67Zm0 23a8.34 8.34 0 0 1 0-16.69 8.48 8.48 0 0 1 8.35 8.36 8.33 8.33 0 0 1-8.35 8.29Z" class="cls-1"/><path id="path41" d="M86.46 177.7a9 9 0 0 0-9.1-9H64.71a1.35 1.35 0 0 0-1.33 1.33v25.76a1.35 1.35 0 0 0 1.33 1.33h3.58a1.35 1.35 0 0 0 1.33-1.33v-9.29h4.55l5.31 10a1.25 1.25 0 0 0 1.15.7h4.1a1.35 1.35 0 0 0 1.18-.64 1.43 1.43 0 0 0 0-1.4l-5-9.31a9 9 0 0 0 5.55-8.15Zm-6.25.09a3.36 3.36 0 0 1-3.21 3.37h-7.31v-6.55H77a3.26 3.26 0 0 1 3.21 3.18Z" class="cls-1"/><path id="path43" d="M103.7 168.72h-9.23a1.34 1.34 0 0 0-1.3 1.33v25.76a1.34 1.34 0 0 0 1.3 1.33h9.22a14.21 14.21 0 1 0 0-28.43Zm7.68 14.2a8 8 0 0 1-8.16 8.31h-3.83v-16.59h3.82a8 8 0 0 1 8.16 8.28Z" class="cls-1"/><path id="path45" d="M137.16 168.33A14.65 14.65 0 1 0 151.78 183a14.52 14.52 0 0 0-14.62-14.65Zm0 23a8.34 8.34 0 0 1 0-16.69 8.48 8.48 0 0 1 8.34 8.36 8.33 8.33 0 0 1-8.34 8.29Z" class="cls-1"/><path id="path47" d="M180.24 169.33a1.31 1.31 0 0 0-1.15-.61h-4a1.28 1.28 0 0 0-1.21.79l-7.07 15.81-7-15.78a1.33 1.33 0 0 0-1.21-.82h-4a1.31 1.31 0 0 0-1.15.61 1.27 1.27 0 0 0-.06 1.27l12 26.21a1.3 1.3 0 0 0 1.21.76h.4a1.31 1.31 0 0 0 1.21-.79l12.07-26.18a1.35 1.35 0 0 0-.09-1.27Z" class="cls-1"/><path id="path49" d="m204.08 195.33-12-26.21a1.29 1.29 0 0 0-1.21-.76h-.39a1.31 1.31 0 0 0-1.21.79l-12.1 26.15a1.27 1.27 0 0 0 .06 1.27 1.38 1.38 0 0 0 1.15.61h3.4a1.75 1.75 0 0 0 1.67-1.12l1.76-3.85h10.86l1.76 3.85a1.74 1.74 0 0 0 1.67 1.12h3.37a1.31 1.31 0 0 0 1.15-.61 1.29 1.29 0 0 0 .06-1.24Zm-10.5-8.65h-5.95l2.94-6.61 3 6.61Z" class="cls-1"/></g></g></g></svg>