<svg xmlns="http://www.w3.org/2000/svg" xml:space="preserve" style="enable-background:new 0 0 227.2 170" viewBox="0 0 227.2 170"><path d="M113.6 91.7v22c37.2 0 66.2-36 54-75-5.3-17-18.9-30.6-35.9-35.9-39-12.2-75 16.8-75 54h22c0-23.4 23.1-41.4 47.7-32.5 9.1 3.3 16.4 10.6 19.7 19.7 9 24.5-9.1 47.7-32.5 47.7l.1-21.9h-22v21.9h21.9zm-21.9 16.9H74.9V91.7h16.9l-.1 16.9zM74.9 91.7H60.7V77.6h14.1v14.1zM19.6 136c-2.9-2-6.4-3-10.6-3H0v28.7h9.1c4.2 0 7.7-1.1 10.6-3.2 1.6-1.1 2.8-2.7 3.7-4.6.9-1.9 1.3-4.2 1.3-6.8 0-2.5-.4-4.8-1.3-6.7-1-1.8-2.2-3.4-3.8-4.4zm-14.3 1.9h2.8c3.2 0 5.8.6 7.7 1.9 2.2 1.3 3.3 3.8 3.3 7.5s-1.1 6.4-3.3 7.8c-1.9 1.3-4.5 1.9-7.7 1.9H5.3v-19.1zm23 23.8h5.1v-20.2h-5.1v20.2zm2.6-29.1c-.9 0-1.6.3-2.2.9-.6.6-.9 1.3-.9 2.2 0 .9.3 1.6.9 2.2.6.6 1.4.9 2.2.9s1.6-.3 2.2-.9c.6-.6.9-1.4.9-2.2 0-.9-.3-1.6-.9-2.2-.6-.6-1.3-.9-2.2-.9zm21 10.6c-1.5-1.4-3.3-2.2-5.1-2.2-2.8 0-5.1 1-6.9 2.9-1.8 1.9-2.7 4.3-2.7 7.3 0 2.9.9 5.3 2.7 7.3 1.8 1.9 4.2 2.9 7 2.9 2 0 3.7-.5 5-1.6v.5c0 1.7-.5 3-1.3 3.9-.9.9-2.1 1.4-3.7 1.4-2.4 0-3.8-.9-5.6-3.3l-3.5 3.3.1.1c.7 1.1 1.9 2.1 3.4 3.1s3.4 1.5 5.7 1.5c3 0 5.5-.9 7.3-2.8 1.8-1.8 2.7-4.3 2.7-7.4v-18.4h-5v1.5zm-1.3 11.9c-.9 1-2 1.5-3.5 1.5s-2.6-.5-3.5-1.5c-.9-1-1.3-2.3-1.3-4 0-1.6.4-3 1.3-4s2-1.5 3.5-1.5 2.6.5 3.5 1.5c.9 1 1.3 2.4 1.3 4 0 1.7-.5 3-1.3 4zm10.7 6.6h5.1v-20.2h-5.1v20.2zm2.6-29.1c-.9 0-1.6.3-2.2.9-.6.6-.9 1.3-.9 2.2 0 .9.3 1.6.9 2.2.6.6 1.4.9 2.2.9.9 0 1.6-.3 2.2-.9.6-.6.9-1.4.9-2.2 0-.9-.3-1.6-.9-2.2-.6-.6-1.4-.9-2.2-.9zm13.6 3.4h-5v5.5h-2.9v4.6h2.9v8.4c0 2.6.5 4.5 1.6 5.6 1 1.1 2.9 1.6 5.5 1.6.8 0 1.7 0 2.5-.1h.2V157l-1.7.1c-1.2 0-2-.2-2.4-.6-.4-.4-.6-1.3-.6-2.7v-7.7h4.7v-4.6h-4.7V136zm22.3 7c-1.5-1.3-3.7-2-6.3-2-1.7 0-3.3.4-4.7 1.1-1.3.7-2.6 1.8-3.5 3.2l.1.1 3.3 3.1c1.3-2.1 2.8-2.9 4.8-2.9 1.1 0 1.9.3 2.6.8.7.6 1 1.3 1 2.2v1c-1.3-.4-2.5-.6-3.7-.6-2.5 0-4.6.6-6.1 1.8-1.6 1.2-2.3 2.9-2.3 5.1 0 1.9.7 3.4 2 4.6 1.3 1.1 3 1.7 4.9 1.7 1.9 0 3.8-.8 5.4-2.1v1.7h5v-13c-.2-2.5-1-4.5-2.5-5.8zm-9.1 11c.6-.4 1.4-.6 2.4-.6 1.2 0 2.5.2 3.9.7v2c-1.1 1-2.6 1.6-4.4 1.6-.9 0-1.6-.2-2-.6-.5-.4-.7-.9-.7-1.5 0-.7.2-1.2.8-1.6zm15.5 7.7h5.1V133h-5.1v28.7zm23.5.5c-8.2 0-14.8-6.6-14.8-14.8 0-8.2 6.6-14.8 14.8-14.8 8.2 0 14.8 6.6 14.8 14.8 0 8.1-6.6 14.8-14.8 14.8zm0-24.4c-5.3 0-9.6 4.3-9.6 9.6s4.3 9.6 9.6 9.6 9.6-4.3 9.6-9.6-4.3-9.6-9.6-9.6zm33 16.7c-.9 1-1.8 1.9-2.6 2.4-.7.5-1.6.7-2.6.7-1.5 0-2.7-.5-3.7-1.7-1-1.1-1.5-2.6-1.5-4.3 0-1.7.5-3.2 1.5-4.3 1-1.1 2.2-1.7 3.7-1.7 1.6 0 3.4 1 4.9 2.8l3.4-3.2c-2.2-2.9-5-4.2-8.3-4.2-2.8 0-5.2 1-7.2 3s-3 4.5-3 7.5 1 5.6 3 7.6 4.4 3 7.2 3c3.7 0 6.7-1.6 8.7-4.5l-3.5-3.1zm20.9-10.2c-.7-1-1.7-1.8-2.9-2.4-1.2-.6-2.6-.9-4.2-.9-2.8 0-5.2 1-6.9 3.1-1.7 2.1-2.6 4.6-2.6 7.6 0 3.1.9 5.6 2.8 7.5 1.8 1.9 4.3 2.9 7.4 2.9 3.4 0 6.3-1.4 8.4-4.1l.1-.1-3.3-3.2c-.3.4-.7.8-1.1 1.2-.5.5-1 .8-1.5 1.1-.8.4-1.6.6-2.6.6-1.4 0-2.6-.4-3.5-1.2-.8-.8-1.3-1.8-1.5-3.1h13.5v-1.9c0-1.3-.2-2.6-.5-3.8-.3-1.2-.9-2.3-1.6-3.3zm-11.1 4.8c.2-1 .7-1.8 1.3-2.4.7-.7 1.6-1 2.7-1 1.2 0 2.2.4 2.8 1 .6.6.9 1.4 1 2.4h-7.8zm30.7-6.1c-1.5-1.3-3.7-2-6.3-2-1.7 0-3.3.4-4.7 1.1-1.3.7-2.6 1.8-3.5 3.2l.1.1 3.3 3.1c1.3-2.1 2.8-2.9 4.8-2.9 1.1 0 1.9.3 2.6.8.7.6 1 1.3 1 2.2v1c-1.3-.4-2.5-.6-3.7-.6-2.5 0-4.6.6-6.1 1.8-1.6 1.2-2.3 2.9-2.3 5.1 0 1.9.7 3.4 2 4.6 1.3 1.1 3 1.7 4.9 1.7 1.9 0 3.8-.8 5.4-2.1v1.7h5v-13c-.2-2.5-1-4.5-2.5-5.8zm-9.1 11c.6-.4 1.4-.6 2.4-.6 1.2 0 2.5.2 3.9.7v2c-1.1 1-2.6 1.6-4.4 1.6-.9 0-1.6-.2-2-.6-.5-.4-.7-.9-.7-1.5 0-.7.3-1.2.8-1.6zm31-10.6c-1.4-1.6-3.4-2.4-5.9-2.4-2 0-3.7.6-4.9 1.7v-1.3h-5v20.2h5.1v-11.2c0-1.5.4-2.8 1.1-3.6.7-.9 1.7-1.3 3-1.3 1.2 0 2 .4 2.7 1.2.6.8 1 1.8 1 3.2v11.7h5.1V150c-.1-2.8-.8-5-2.2-6.6z" style="fill:#0080ff"/></svg>