<svg xmlns="http://www.w3.org/2000/svg" viewBox="0 0 111.13 40.32"><defs><radialGradient id="radial-gradient" cx="16.28" cy="20.16" r="18.32" gradientTransform="matrix(0 0 0 0 -1325.17 -664.95)" gradientUnits="userSpaceOnUse"><stop offset="0" stop-color="#fff" stop-opacity=".1"/><stop offset="1" stop-color="#fff" stop-opacity="0"/></radialGradient><linearGradient id="linear-gradient" x1="-8171.65" y1="3393.54" x2="-8165.14" y2="3400.05" gradientTransform="matrix(0 0 0 0 -1325.17 -664.95)" gradientUnits="userSpaceOnUse"><stop offset="0" stop-color="#1a237e" stop-opacity=".4"/><stop offset="1" stop-color="#1a237e" stop-opacity="0"/></linearGradient><clipPath id="clip-path"><path d="M32.56 18.61 21.71 29.46l10.85 10.86h-12.4l-4.66-4.65-6.2-6.2 10.86-10.86ZM20.16 0 0 20.16l6.2 6.2L32.56 0Z" style="fill:none"/></clipPath><style>.cls-2{clip-path:url(#clip-path)}.cls-3{fill:#39cefd}</style></defs><g id="Layer_2" data-name="Layer 2"><g id="Layer_1-2" data-name="Layer 1"><g class="cls-2"><path class="cls-3" d="m15.5 35.67 17.06-17.06h-12.4L9.3 29.46Z"/></g><g class="cls-2"><path class="cls-3" d="M0 20.16 20.16 0h12.4L6.2 26.36Z"/></g><path d="M20.16 40.32h12.4L21.71 29.46l-6.2 6.2Z" style="fill:#03569b" class="cls-2"/><path d="m21.71 29.46-6.2 6.2 9.2-3.19Z" style="fill:url(#linear-gradient)" class="cls-2"/><path d="m9.3 29.46 6.2-6.2 6.2 6.2-6.2 6.21Z" style="fill:#16b9fd" class="cls-2"/><path d="M32.56 18.61 21.71 29.46l10.85 10.86h-12.4l-4.66-4.65-6.2-6.2 10.86-10.86ZM20.16 0 0 20.16l6.2 6.2L32.56 0Z" style="fill:url(#radial-gradient)"/><path d="M36.49 10.81h10.87v2.07h-8.59v6.42h7.76v2.07h-7.76v8.08h-2.18V10.81Zm13.46 0h2.17v18.74h-2.17ZM60.3 30a4.91 4.91 0 0 1-3.73-1.45 5.78 5.78 0 0 1-1.24-3.93v-8.43h2.17v8.08a4.28 4.28 0 0 0 .83 2.8 3.12 3.12 0 0 0 2.38.93 3.19 3.19 0 0 0 2-.62A3.87 3.87 0 0 0 64 25.82a4.71 4.71 0 0 0 .52-2.07v-7.56h2.17v13.36h-2.04v-2h-.1a4.55 4.55 0 0 1-1.76 1.66 4.13 4.13 0 0 1-2.49.79Zm15.11-.25a4.15 4.15 0 0 1-1.55-.31 4.27 4.27 0 0 1-1.14-.72 4.6 4.6 0 0 1-.83-1.14 3.46 3.46 0 0 1-.31-1.58v-7.84H69.2v-2h2.38v-3.7h2.17v3.73H77v2h-3.24v7.21a2.63 2.63 0 0 0 .41 1.66 1.74 1.74 0 0 0 1.45.62 2.38 2.38 0 0 0 1.45-.41v2.17c-.31.1-.52.21-.83.31Zm9.43 0a4.15 4.15 0 0 1-1.55-.31 4.27 4.27 0 0 1-1.14-.72 4.6 4.6 0 0 1-.83-1.14A3.46 3.46 0 0 1 81 26v-7.84h-2.17v-2h2.38v-3.7h2.17v3.73h3.22v2h-3.21v7.21a2.63 2.63 0 0 0 .41 1.66 1.74 1.74 0 0 0 1.45.62 2.38 2.38 0 0 0 1.45-.41v2.17c-.31.1-.52.21-.83.31Zm9.83.25a6.52 6.52 0 0 1-3.42-1 6.85 6.85 0 0 1-2.38-2.48 8.12 8.12 0 0 1-.87-3.6 8 8 0 0 1 .83-3.52 6.89 6.89 0 0 1 2.28-2.59 6.31 6.31 0 0 1 9 2.38 7.68 7.68 0 0 1 .83 3.52 1.54 1.54 0 0 1-.1.72H90.22a6.34 6.34 0 0 0 .72 2.57 4 4 0 0 0 1.66 1.55 5.09 5.09 0 0 0 2.07.52 4.34 4.34 0 0 0 3.93-2.38l1.86.93a7.16 7.16 0 0 1-2.38 2.59 7.62 7.62 0 0 1-3.42.72Zm3.83-8.49a3.44 3.44 0 0 0-.5-1.7 4.42 4.42 0 0 0-1.35-1.45 3.94 3.94 0 0 0-2.28-.62 3.67 3.67 0 0 0-2.69 1 5.2 5.2 0 0 0-1.45 2.69Zm4.97-5.32h2.07v2.17h.1a3.2 3.2 0 0 1 1.55-1.76 4 4 0 0 1 2.38-.72 3.46 3.46 0 0 1 1.55.31v2.38a3.55 3.55 0 0 0-1.86-.41 3.49 3.49 0 0 0-1.76.52 6.05 6.05 0 0 0-1.35 1.45 4.28 4.28 0 0 0-.52 2v7.45h-2.17Z" style="fill:gray"/></g></g></svg>