<svg xmlns="http://www.w3.org/2000/svg" width="242.752" height="460.24" version="1.0"><path d="M82.626 243.321s-11.939 7.267 8.305 9.344c24.397 3.114 37.375 2.595 64.367-2.596 0 0 7.267 4.672 17.13 8.306-60.733 25.954-137.558-1.558-89.802-15.054zm-7.786-33.74s-12.977 9.862 7.267 11.938c26.473 2.596 47.237 3.115 83.053-4.152 0 0 4.672 5.19 12.458 7.786-73.19 21.802-155.206 2.077-102.778-15.572zm143.267 59.175s8.824 7.268-9.863 12.977c-34.778 10.382-145.863 13.496-177.008 0-10.9-4.671 9.863-11.42 16.61-12.458 6.749-1.557 10.382-1.557 10.382-1.557-11.938-8.305-79.42 17.13-34.26 24.397 124.062 20.244 226.322-8.824 194.138-23.359zM88.336 174.283s-56.58 13.496-20.244 18.168c15.572 2.076 46.198 1.557 74.748-.52 23.358-2.076 46.718-6.228 46.718-6.228s-8.306 3.633-14.016 7.267c-57.618 15.053-168.183 8.305-136.519-7.267 26.992-12.977 49.312-11.42 49.312-11.42zm101.222 56.58c58.137-30.107 31.145-59.175 12.458-55.542-4.672 1.038-6.748 2.077-6.748 2.077s1.557-3.115 5.19-4.153c36.855-12.977 65.924 38.93-11.938 59.175 0 0 .518-.519 1.038-1.557zm-95.512 82.015c56.061 3.634 141.71-2.076 143.786-28.55 0 0-4.152 10.383-46.198 18.168-47.756 8.825-106.931 7.787-141.71 2.077 0 0 7.267 6.229 44.122 8.305z" style="fill:#4e7896" transform="translate(-2.168 -2.985)"/><path d="M154.26 2.985s32.183 32.703-30.626 82.016c-50.351 39.969-11.42 62.808 0 88.763-29.588-26.473-50.87-49.832-36.336-71.634 21.283-32.183 79.939-47.755 66.962-99.145zm-16.61 148.977c15.052 17.13-4.153 32.703-4.153 32.703s38.412-19.725 20.763-44.122c-16.092-23.359-28.55-34.779 38.931-73.71 0 0-106.412 26.473-55.542 85.13zM99.236 430.71v-50.87c0-12.977-7.267-21.801-25.435-21.801-10.382 0-19.206 2.595-26.993 5.71l2.596 9.343c5.71-2.077 12.977-4.153 20.763-4.153 9.863 0 14.535 4.153 14.535 12.458v6.748h-5.191c-24.916 0-36.336 9.344-36.336 24.397 0 12.458 7.786 19.725 21.801 19.725 8.825 0 15.573-4.152 21.802-9.343l1.038 7.786h11.42zM84.703 414.1c-5.191 4.671-10.901 7.267-16.092 7.267-6.748 0-10.9-4.153-10.9-11.42s4.152-12.458 20.763-12.458h6.229v16.61zm63.328 16.61h-18.168l-21.802-71.114h15.573l13.496 43.603 3.114 12.977c6.749-18.687 11.94-37.894 14.016-56.58h15.573c-4.153 23.359-11.42 48.793-21.802 71.114zm84.091 0v-50.87c0-12.977-7.267-21.801-25.435-21.801-10.382 0-19.206 2.595-26.992 5.71l2.076 9.343c6.23-2.077 13.496-4.153 21.283-4.153 9.862 0 14.534 4.153 14.534 12.458v6.748h-5.19c-24.917 0-36.337 9.344-36.337 24.397 0 12.458 7.268 19.725 21.283 19.725 9.343 0 16.092-4.152 22.32-9.343l1.039 7.786h11.42zm-14.534-16.61c-5.19 4.671-10.9 7.267-16.092 7.267-6.748 0-10.9-4.153-10.9-11.42s4.152-12.458 20.763-12.458h6.229v16.61zM27.084 442.65c-4.153 6.228-10.382 10.9-18.168 13.495l-6.748-8.305c5.19-3.115 10.382-7.786 12.458-11.939 2.076-3.633 2.596-8.825 2.596-20.763V334.16h15.572v79.94c0 16.091-1.557 22.32-5.71 28.55z" style="fill:#f58219" transform="translate(-2.168 -2.985)"/></svg>