<svg xmlns="http://www.w3.org/2000/svg" xml:space="preserve" style="enable-background:new 0 0 706.3 170" viewBox="0 0 706.3 170"><path d="M257.1 113.1V69.7l-18.9 48.2c-.7 1.6-2.2 2.7-4 2.7-1.8 0-3.3-1.1-4-2.7l-18.9-48.2v43.4c0 4-3.2 7.5-7.3 7.5-4.2 0-7.6-3.5-7.6-7.5V61.5c0-6.7 5.5-12.1 12.1-12.1 5.2 0 9.6 3.2 11.4 7.8l14.2 36.4 14.4-36.4c1.7-4.6 6.1-7.8 11.2-7.8 6.8 0 12.2 5.5 12.2 12.1V113c0 4-3.3 7.5-7.6 7.5-3.9 0-7.2-3.4-7.2-7.4zm103.4-.1c0 4.2-3.4 7.6-7.6 7.6-3.2 0-6-2.1-7-5l-2.8-8.1h-31.4l-2.8 8.1c-.9 2.9-3.9 5-7.1 5-4.2 0-7.6-3.3-7.6-7.6 0-.9.2-1.9.6-2.6l20.4-52.6c1.9-4.9 6.6-8.3 12.2-8.3s10.4 3.5 12.2 8.3l20.3 52.6c.2.8.6 1.6.6 2.6zm-22.1-18.5-11-31.5-11.1 31.5h22.1zm92.1 18.6V90.6h-32.9v22.6c0 4-3.2 7.5-7.3 7.5-4.2 0-7.6-3.5-7.6-7.5V56.8c0-4.1 3.3-7.5 7.5-7.5s7.5 3.3 7.5 7.5v20.7h32.9V56.8c0-4.1 3.3-7.5 7.6-7.5 4.1 0 7.5 3.3 7.5 7.5V113c0 4-3.3 7.5-7.6 7.5s-7.6-3.4-7.6-7.4zm74.6-64.2c21.1 0 36.5 15 36.5 36.1 0 21-15.4 36.1-36.5 36.1-21 0-36.4-15-36.4-36.1.1-21 15.4-36.1 36.4-36.1zm0 13.2C492.2 62.1 484 72 484 85c0 12.9 8.2 22.9 21.1 22.9S526.4 98 526.4 85c-.1-13-8.4-22.9-21.3-22.9zm60-5.2c0-4.2 3.3-7.6 7.6-7.6 4.2 0 7.6 3.3 7.6 7.6v34.6c0 9.7 5.3 16.4 16.2 16.4 10.7 0 16-6.7 16-16.4V56.9c0-4.2 3.3-7.6 7.6-7.6 4.2 0 7.6 3.3 7.6 7.6v35c0 17.4-9.9 29.2-31.1 29.2-21.3 0-31.3-11.9-31.3-29.1V56.9zm105.2 56.2v-50h-14.5c-3.6 0-6.6-2.9-6.6-6.5 0-3.7 3-6.6 6.6-6.6h44c3.6 0 6.6 2.9 6.6 6.6 0 3.6-3 6.5-6.6 6.5h-14.5v50c0 4-3.3 7.5-7.5 7.5-4.1-.1-7.5-3.5-7.5-7.5zm-603.2 27v-17.6c-7-1.3-12.3-7.5-12.3-14.8 0-3 .9-5.9 2.5-8.3L42.5 88.5 27.8 99.4c1.6 2.4 2.5 5.2 2.5 8.3s-.9 6-2.6 8.3l33.5 26.4c1.8-1.1 3.8-2 5.9-2.3zm5.6 0c2.1.4 4.1 1.2 5.8 2.5l33.5-26.4c-1.6-2.4-2.5-5.3-2.5-8.3 0-3 .9-6 2.5-8.3l-14.6-11-14.9 10.8c1.6 2.4 2.5 5.2 2.5 8.3 0 7.4-5.3 13.5-12.3 14.8v17.6zm9.7 6.5c1.6 2.4 2.5 5.3 2.5 8.3 0 8.3-6.8 15.1-15.1 15.1s-15.1-6.8-15.1-15.1c0-3.1.9-5.9 2.6-8.3l-33.5-26.4c-2.5 1.7-5.4 2.7-8.6 2.7-8.3 0-15.1-6.8-15.1-15.1 0-7.4 5.3-13.5 12.3-14.8V77.2C5.3 75.8 0 69.7 0 62.3 0 54 6.8 47.2 15.1 47.2c3.2 0 6.1 1 8.6 2.7l33.5-26.4c-1.5-2.5-2.5-5.3-2.5-8.4C54.8 6.8 61.6 0 69.9 0S85 6.8 85 15.1c0 3.1-.9 5.9-2.5 8.3L116 49.9c2.5-1.7 5.4-2.7 8.6-2.7 8.3 0 15.1 6.8 15.1 15.1 0 7.4-5.3 13.5-12.3 14.8v15.7c7 1.3 12.3 7.5 12.3 14.8 0 8.3-6.8 15.1-15.1 15.1-3.2 0-6.1-1-8.6-2.7l-33.6 26.6zM23.8 95.3 37.7 85 23.8 74.7c-1.7 1.2-3.7 2.1-5.9 2.5v15.7c2.2.3 4.2 1.2 5.9 2.4zm4-24.7 14.7 10.9 14.7-10.9c-1.5-2.4-2.5-5.3-2.5-8.3 0-7.4 5.3-13.5 12.3-14.8V29.9c-2.1-.4-4.1-1.2-5.8-2.5L27.8 53.9c1.5 2.5 2.5 5.3 2.5 8.4-.1 3.1-1 6-2.5 8.3zM116 95.3c1.7-1.2 3.7-2.1 5.9-2.5V77.2c-2.2-.4-4.2-1.2-5.9-2.5L102.1 85 116 95.3zM112.1 54 78.6 27.6c-1.7 1.2-3.7 2.1-5.8 2.5v17.6c7 1.3 12.3 7.5 12.3 14.8 0 3-.9 6-2.5 8.3l14.6 10.8 14.8-11c-1.6-2.4-2.5-5.2-2.5-8.3.1-3.1 1-5.9 2.6-8.3zM61.2 95.3c2.5-1.7 5.5-2.7 8.7-2.7s6.2 1 8.7 2.7L92.5 85 78.6 74.7c-2.5 1.7-5.5 2.7-8.7 2.7s-6.2-1-8.7-2.7L47.3 85l13.9 10.3zm8.7-23.5c5.2 0 9.4-4.3 9.4-9.4S75 53 69.9 53c-5.2 0-9.4 4.3-9.4 9.4s4.2 9.4 9.4 9.4zm0 45.3c5.2 0 9.4-4.3 9.4-9.4 0-5.2-4.3-9.4-9.4-9.4-5.2 0-9.4 4.3-9.4 9.4-.1 5.2 4.2 9.4 9.4 9.4zm54.8-45.3c5.2 0 9.4-4.3 9.4-9.4s-4.3-9.4-9.4-9.4c-5.2 0-9.4 4.3-9.4 9.4s4.2 9.4 9.4 9.4zm0 45.3c5.2 0 9.4-4.3 9.4-9.4 0-5.2-4.3-9.4-9.4-9.4-5.2 0-9.4 4.3-9.4 9.4-.1 5.2 4.2 9.4 9.4 9.4zM15.1 71.8c5.2 0 9.4-4.3 9.4-9.4S20.2 53 15.1 53s-9.4 4.3-9.4 9.4 4.2 9.4 9.4 9.4zm0 45.3c5.2 0 9.4-4.3 9.4-9.4 0-5.2-4.3-9.4-9.4-9.4s-9.4 4.3-9.4 9.4c0 5.2 4.2 9.4 9.4 9.4zm54.8 47.2c5.2 0 9.4-4.3 9.4-9.4s-4.3-9.4-9.4-9.4c-5.2 0-9.4 4.3-9.4 9.4s4.2 9.4 9.4 9.4zm0-139.7c5.2 0 9.4-4.3 9.4-9.4S75 5.8 69.9 5.8c-5.2 0-9.4 4.3-9.4 9.4s4.2 9.4 9.4 9.4z" style="fill:#0bbcd4"/></svg>