<svg xmlns="http://www.w3.org/2000/svg" viewBox="0 0 1853.1 612.95"><defs><style>.cls-1{fill:#048bca}</style></defs><g id="Layer_2" data-name="Layer 2"><g id="Layer_1-2" data-name="Layer 1"><path d="M283.1 612.95c-5.56-2.4-11.61-1.9-17.41-2.72C135.63 591.74 32.72 498.12 7 368.94c-23.3-117 12-216.59 101.29-295.85 43.5-38.61 95.18-61.59 152.77-69.67 89.78-12.59 170.62 9.47 240.84 67 55.25 45.29 90.78 103.53 104.63 173.6 18.94 95.82-2.45 182.62-64.51 258.3-45.07 55-103.38 89.15-172.84 104.2a304.82 304.82 0 0 1-36.54 5.35c-1.2.11-2.74-.58-3.54 1h-7a7.64 7.64 0 0 0-6 0h-19a10.23 10.23 0 0 0-7 0Zm1570-227c-1.81 1-1.25 3-1.48 4.47-3.49 21.76-16.94 34.24-37.59 39a109.1 109.1 0 0 1-57.27-2.08c-23.1-7.07-33.89-24.34-37.62-47.05a103.9 103.9 0 0 1-1.06-16.93c0-51 0-102 .13-153 0-5-.85-6.83-6.32-6.59-11.14.49-22.32 0-33.49.22-3.1 0-4.06-.87-3.93-3.94.23-5.49.18-11 0-16.49-.08-2.67.66-3.74 3.51-4a167.66 167.66 0 0 0 20.7-3.23c23.8-5.22 36.84-20.49 41.41-43.82a133.45 133.45 0 0 0 1.93-29.85c-.1-3.33.74-4.58 4.3-4.79 11.8-.69 23.6-1.58 35.35-2.82 4.43-.47 5.19.95 5.16 5-.19 22.66 0 45.32-.18 68 0 3.95 1.05 5 5 4.93 20.49-.2 41-.09 61.49-.09v2a7.65 7.65 0 0 0 0 6v6a110 110 0 0 0-1 17.33c0 5.25-1.18 6.59-6.16 5.76-13.16-2.2-26.41-3.31-39.7-4.19-4.5-.3-9-.32-13.47-.28-2.64 0-4 1.26-4 3.95 0 1.5-.06 3-.06 4.5v163.89c0 1.83 0 3.67.12 5.49.68 7.73 5 12.93 12.55 15a27.71 27.71 0 0 0 5.9 1c12.11.61 18.9-5.5 19.27-17.62.26-8.66 0-17.32.11-26 .12-6.71 1.62-8.15 8.36-8.3 4.16-.09 8.33-.05 12.49 0 2 0 4 .06 5.65 1.52Z" class="cls-1"/><path d="M1853.1 180.95c-1.76-2-1.34-4 0-6Z" style="fill:#49abd8"/><path d="M1097.13 223.52c7.83-9.25 15.35-17.15 23.86-24 34.4-27.81 73.43-37.39 116.6-28.45 31.17 6.45 48.66 27.9 50.53 59.73 1.15 19.65.51 39.31.59 59 .12 28.16 0 56.32 0 84.48 0 10.93 3.83 16.57 14.06 20.47 8.19 3.12 16.82 4.05 25.5 4.11 3.36 0 4.67.81 4.52 4.42-.29 6.65-.35 13.34 0 20 .23 4.14-1.32 4.86-5.07 4.85q-65.73-.2-131.47-.11c-9.21 0-9.21 0-9.21-9.42 0-5.33.14-10.67-.06-16-.1-2.77.7-3.79 3.57-3.72a44.47 44.47 0 0 0 12.33-1.68c12.51-3.3 17.51-9.51 17.56-22.46q.15-35.49 0-71c-.05-16.83-.15-33.66-.48-50.48a71.33 71.33 0 0 0-3.76-21.06c-6.18-18.67-20.71-27.53-40.17-24.78-24.61 3.48-43.41 16.72-59.35 34.85-2.52 2.87-4.8 6-7.1 9-8.69 11.6-13.49 23.92-12.86 39.16 1.14 27.61.32 55.31.32 83 0 14.68 5.88 21.8 20.22 24.42 2.13.39 4.28.67 6.43.9 7 .74 7 .72 7 8 0 5.83-.1 11.67 0 17.49.06 2.61-.42 3.85-3.49 3.85q-69.23-.14-138.47 0c-2.71 0-3.39-1-3.34-3.48.13-7.33.16-14.66 0-22-.06-2.83.84-3.7 3.67-3.7a76.27 76.27 0 0 0 22.68-3.11c12.22-3.75 16.7-9.88 16.7-22.67v-146c0-12.42-4.22-18.22-16-22.15a67.75 67.75 0 0 0-22.64-3.21c-3.56.05-4.54-1.24-4.42-4.65.24-6.82.18-13.66 0-20.49-.07-2.78.75-3.7 3.64-3.7q52.24.14 104.47 0c2.89 0 3.62.87 3.6 3.66-.13 13.66-.06 27.33-.06 41 .1 1.54.1 3.13.1 5.93ZM867.1 427.95c-25.16 0-50.33-.09-75.49.1-3.83 0-4.77-1-4.61-4.71.31-6.65.27-13.33 0-20-.14-3.41.69-4.62 4.32-4.48 7.82.29 15.66.17 23.49.06 4.58-.06 10.1.93 12.49-4.12 2.47-5.21-1-9.58-4.28-13.45q-16.94-20-34-40c-5.72-6.72-11.54-13.37-17.12-20.21-1.9-2.34-2.94-2.05-4.87 0q-27 28.44-54.26 56.71a24.15 24.15 0 0 0-1.94 2.28c-7.23 9.72-4.41 17.21 7.56 18.34 9.26.88 18.64.54 28 .4 3.52-.05 4.57 1 4.44 4.46-.26 7-.19 14 0 21 .07 2.79-.77 3.7-3.65 3.69q-60-.13-120 0c-2.82 0-3.76-.8-3.69-3.65.17-7.33.14-14.66 0-22 0-2.5.62-3.45 3.32-3.54 19.75-.64 36.18-8.4 50.1-22.51 24.46-24.78 49.34-49.16 74.16-73.6 2.4-2.36 2.56-3.65.22-6.25-21.58-24.07-43.25-48.06-64.36-72.53-12.64-14.65-28.32-21.69-47.31-21.82-3.78 0-4.78-1.07-4.61-4.76.31-6.82.22-13.66 0-20.49-.08-2.9.5-4 3.77-4q72.49.17 145 0c2.95 0 4.14.61 4 3.83q-.35 10.74 0 21.49c.1 3.22-1.09 3.94-4 3.83-5.49-.21-11-.12-16.49 0-4 .06-8.36 0-10.46 4.26s.7 7.8 3.2 10.83c9.58 11.54 19.37 22.9 29.08 34.32 3.88 4.57 7.88 9 11.61 13.74 1.88 2.37 3 2.08 5 0 13.66-14.6 27.44-29.1 41.16-43.64a27.68 27.68 0 0 0 2.47-3.14c5.5-7.85 3-14.34-6.41-15.93-6.76-1.14-13.64-.39-20.46-.41-2.58 0-3.46-.68-3.4-3.36q.25-11.24 0-22.49c-.07-2.74.93-3.3 3.45-3.29q54.74.1 109.48 0c3.21 0 3.91 1.08 3.84 4q-.28 10.74 0 21.49c.08 2.86-.94 3.59-3.67 3.81-5.46.44-10.91 1.27-16.33 2.13-12.62 2-22.92 8.13-31.94 17.18-20.82 20.89-41.93 41.49-63.09 62-2.75 2.67-2.53 4-.1 6.65q39.37 43.25 78.47 86.75c12 13.36 26.41 21.71 44.78 21.88 2.77 0 3.28 1.1 3.24 3.53-.12 7-.26 14 0 21 .16 3.71-.83 4.73-4.63 4.7-25.15-.17-50.32-.08-75.48-.08Zm769.08-135.45c-.46-16.2-2-32.23-6.06-48-10.74-41.62-36.42-68.39-78.66-78.19a174.07 174.07 0 0 0-75.38-1.2c-46.54 9.68-79.1 36.26-94.21 81.93-12 36.33-11.65 73.3-.21 109.6 10.54 33.43 32.38 57.68 65.73 69.82 30 10.9 61.11 13.88 92.48 7.62 44.84-8.95 72.29-37.21 85.78-80.11.83-2.65.56-3.8-2.53-4.31-7.55-1.23-15.09-2.64-22.51-4.47-4-1-5.44.2-6.57 4-7.22 24.33-22.68 41-46.81 49.39a95.4 95.4 0 0 1-22.4 4.8c-33.16 3.13-58.09-8.47-71.79-40.66-8.29-19.48-10.7-40.06-11.91-60.92-.23-3.93.82-5 4.81-5 30.83.17 61.66.1 92.5.1 31 0 62-.06 93 .08 3.56.09 4.85-.53 4.74-4.48Zm-66.6-21.5c-20.49-.21-41-.1-61.48-.1s-41-.1-61.48.09c-3.9 0-4.59-.88-4.07-4.72 1.77-12.91 4.25-25.61 9.67-37.54 16.22-35.76 61.3-49.39 92-27.76 16.4 11.55 24.15 28.37 27.75 47.43 1.11 5.87 1.28 11.9 2.08 17.84.5 3.68-.58 4.85-4.47 4.76Z" class="cls-1"/><path d="M171.54 232.57c5.37-6.54 10.5-13 16.3-18.88 28.67-29 63.18-41.44 103.58-35.37 29.24 4.39 47.26 22.7 52.9 51.72.25 1.3.58 2.58 1 4.55a155.71 155.71 0 0 1 26.83-29.33c24.71-21 53.12-30.35 85.47-28.16 38 2.57 60.45 25.1 62.66 63.22 1 16.65.41 33.32.46 50 .1 30.83 0 61.66 0 92.5 0 11.47 3.9 17.09 14.65 21.1a62.84 62.84 0 0 0 23.07 3.68c4.16-.06 5 1.45 4.8 5.15-.27 6.49-.31 13 0 19.49.2 3.92-1 5-4.92 5-42.16-.15-84.33-.09-126.49-.09-2.83 0-5.68-.17-8.5 0s-4.16-.61-4.06-3.83c.22-7.33.2-14.67 0-22-.07-2.93 1-3.69 3.75-3.67a45.07 45.07 0 0 0 12.34-1.72c11.91-3.31 16.91-9.66 17-22q.11-34.5 0-69c-.09-18.66.57-37.33-.54-56a89.88 89.88 0 0 0-4-23.07c-5-15-14.89-21.27-30.56-19.47-18.4 2.12-32.57 11.91-44.84 25-10.71 11.42-18.59 24.71-25.16 38.84a14.28 14.28 0 0 0-1 6.33v97c0 13.29 5.8 20.42 18.84 23a54.61 54.61 0 0 0 9.92 1.09c2.73 0 3.34 1.08 3.29 3.57-.13 7-.27 14 0 21 .17 3.88-.91 5-4.91 5-41.16-.15-82.33-.09-123.49-.09a16.6 16.6 0 0 0-2 0c-2.46.3-3.11-.87-3.08-3.18.11-7.66.16-15.33 0-23-.07-2.82 1.18-3.24 3.56-3.28a45.86 45.86 0 0 0 16.61-3.08c8.07-3.25 12.77-9.22 12.76-18 0-42.33.79-84.66-.45-127a80.51 80.51 0 0 0-3.95-23.08c-5.09-15.33-15.17-21.86-31.25-20.2-15.74 1.63-28.73 9.09-40.22 19.49-13.73 12.43-23.06 27.88-30.36 44.71-.91 2.09-.78 4.23-.78 6.38v96c0 13.82 5.8 21 19.35 23.6a48.75 48.75 0 0 0 9.92 1.08c3.25 0 3.87 1.28 3.79 4.16-.18 6.83-.31 13.68 0 20.49.21 4.06-1.2 4.93-5 4.91-39.66-.13-79.33-.08-119-.08-5.17 0-10.34-.16-15.5.06-3 .13-4.1-.75-4-3.9.21-7.16.26-14.34 0-21.49-.13-3.48 1.25-4.11 4.33-4.13 8 0 16-1 23.54-3.85 10.15-3.86 14.19-9.61 14.19-20.46 0-49.5-.06-99 .07-148.49 0-10-4.54-16.33-13.56-19.94-7.71-3.09-15.79-4.07-24-4.12-3.32 0-4.74-.78-4.59-4.43.28-6.82.19-13.67 0-20.49-.07-2.83.47-4.14 3.77-4.12q51.5.17 103 0c3.4 0 3.72 1.43 3.7 4.18-.1 13.83-.06 27.67 0 41.5.06 1.63-.45 3.28.76 5.2Z" style="fill:#fefefe"/></g></g></svg>