<svg xmlns="http://www.w3.org/2000/svg" xmlns:xlink="http://www.w3.org/1999/xlink" enable-background="new 0 0 53.9 51.3" viewBox="0 0 53.9 51.3"><clipPath id="T"><path d="M18.7 4.4c1.9 5.9 2.7 16.5 8.3 16.5.4 0 .9 0 1.3-.1-5.1-1.2-5.8-11.6-8.9-17.1-.2.2-.5.4-.7.7"/></clipPath><linearGradient id="U" x1="0" x2="1" y1="52.979" y2="52.979" gradientTransform="matrix(0 25.6288 25.6288 0 -1334.196 .378)" gradientUnits="userSpaceOnUse"><stop offset="0" stop-color="#0095da"/><stop offset=".11" stop-color="#0095da"/><stop offset=".175" stop-color="#0397db"/><stop offset=".23" stop-color="#0e9fdf"/><stop offset=".281" stop-color="#1face6"/><stop offset=".33" stop-color="#37bef0"/><stop offset=".35" stop-color="#44c8f5"/><stop offset=".45" stop-color="#44c8f5"/><stop offset=".467" stop-color="#40c4f2"/><stop offset=".632" stop-color="#1d9dda"/><stop offset=".764" stop-color="#0886cb"/><stop offset=".846" stop-color="#007dc5"/><stop offset="1" stop-color="#007dc5"/></linearGradient><clipPath id="V"><path d="M19.4 3.7c3.1 5.4 3.8 15.9 8.9 17.1l1.2-.3C24.9 18.1 23.7 8 20.1 3.1c-.2.2-.4.4-.7.6"/></clipPath><linearGradient id="W" x1="0" x2="1" y1="52.979" y2="52.979" gradientTransform="matrix(0 26.2819 26.2819 0 -1368.002 -.385)" gradientUnits="userSpaceOnUse"><stop offset="0" stop-color="#0078b9"/><stop offset=".176" stop-color="#0078b9"/><stop offset=".244" stop-color="#0087c7"/><stop offset=".36" stop-color="#00abe6"/><stop offset=".52" stop-color="#00abe6"/><stop offset=".732" stop-color="#00ace9"/><stop offset=".846" stop-color="#00aeef"/><stop offset="1" stop-color="#00aeef"/></linearGradient><filter id="a" width="9.6" height="17.9" x="25" y=".5" filterUnits="userSpaceOnUse"><feFlood flood-color="#fff" result="back"/><feBlend in="SourceGraphic" in2="back"/></filter><mask id="Y" width="9.6" height="17.9" x="25" y=".5" maskUnits="userSpaceOnUse"><g filter="url(#a)"><path fill="url(#c)" d="M7.7-.1h31.6v31.6H7.7z" clip-path="url(#b)"/></g></mask><clipPath id="d"><path d="M9.3-.1h30v10.5h-30z"/></clipPath><clipPath id="e" clip-path="url(#d)"><path d="M9.3-.1h30v10.5h-30z"/></clipPath><clipPath id="b" clip-path="url(#e)"><path d="M9.3-.1h30v10.5h-30z"/></clipPath><linearGradient id="f"><stop offset="0" stop-color="#231f20"/><stop offset=".153" stop-color="#464344"/><stop offset=".742" stop-color="#cac9c9"/><stop offset="1" stop-color="#fff"/></linearGradient><linearGradient xlink:href="#f" id="c" x1="0" x2="1" y1="52.979" y2="52.979" gradientTransform="matrix(0 10.5272 10.5272 0 -533.45 -.074)" gradientUnits="userSpaceOnUse"/><clipPath id="X"><path d="M25 .5h9.6v17.9H25z"/></clipPath><clipPath id="Z"><path d="M33.2 18.3c.5-.4.9-.8 1.4-1.2-2-5.9-2.7-16.6-8.4-16.6-.4 0-.8 0-1.2.1 5.2 1.3 5.8 12.6 8.2 17.7"/></clipPath><linearGradient id="aa" x1="0" x2="1" y1="52.979" y2="52.979" gradientTransform="matrix(0 -20.9121 -20.9121 0 1137.707 20.298)" gradientUnits="userSpaceOnUse"><stop offset="0" stop-color="#0066b3"/><stop offset=".139" stop-color="#0079c1"/><stop offset=".418" stop-color="#00a9e6"/><stop offset=".5" stop-color="#00b9f2"/><stop offset="1" stop-color="#00b9f2"/></linearGradient><filter id="g" width="2.2" height=".1" x="24" y=".5" filterUnits="userSpaceOnUse"><feFlood flood-color="#fff" result="back"/><feBlend in="SourceGraphic" in2="back"/></filter><mask id="ab" width="2.2" height=".1" x="24" y=".5" maskUnits="userSpaceOnUse"><g filter="url(#g)"><path fill="url(#c)" d="M7.7-.1h31.6v31.6H7.7z" clip-path="url(#h)"/></g></mask><clipPath id="i"><path d="M9.3-.1h30v10.5h-30z"/></clipPath><clipPath id="j" clip-path="url(#i)"><path d="M9.3-.1h30v10.5h-30z"/></clipPath><clipPath id="h" clip-path="url(#j)"><path d="M9.3-.1h30v10.5h-30z"/></clipPath><clipPath id="ac"><path d="M24 .5h2.2v.1H24z"/></clipPath><clipPath id="ad"><path d="M23.6.9c4.7 2.4 5.1 13.5 8.8 17.9.2-.2.5-.4.7-.6-2.3-5.1-3-16.4-8.2-17.7-.4.2-.8.3-1.3.4"/></clipPath><linearGradient id="ae" x1="0" x2="1" y1="52.979" y2="52.979" gradientTransform="matrix(0 27.2874 27.2874 0 -1417.18 -2.916)" gradientUnits="userSpaceOnUse"><stop offset="0" stop-color="#006cb3"/><stop offset=".099" stop-color="#006cb3"/><stop offset=".2" stop-color="#007ec1"/><stop offset=".4" stop-color="#00abe6"/><stop offset=".516" stop-color="#00abe6"/><stop offset=".846" stop-color="#0097d9"/><stop offset="1" stop-color="#0097d9"/></linearGradient><clipPath id="af"><path d="M20.1 3.1c3.6 4.9 4.8 15 9.5 17.3.9-.3 1.9-.8 2.9-1.5-3.7-4.5-4.1-15.5-8.8-17.9-1.2.4-2.4 1.1-3.6 2.1"/></clipPath><linearGradient id="ag" x1="0" x2="1" y1="52.979" y2="52.979" gradientTransform="matrix(0 29.0166 29.0166 0 -1510.957 -2.8)" gradientUnits="userSpaceOnUse"><stop offset="0" stop-color="#00487e"/><stop offset=".11" stop-color="#00487e"/><stop offset=".39" stop-color="#0087c7"/><stop offset=".52" stop-color="#0087c7"/><stop offset=".545" stop-color="#0082c2"/><stop offset=".78" stop-color="#005598"/><stop offset="1" stop-color="#005598"/></linearGradient><filter id="k" width="4.1" height="6.5" x="14.6" y="2.8" filterUnits="userSpaceOnUse"><feFlood flood-color="#fff" result="back"/><feBlend in="SourceGraphic" in2="back"/></filter><mask id="ah" width="4.1" height="6.5" x="14.6" y="2.8" maskUnits="userSpaceOnUse"><g filter="url(#k)"><path fill="url(#m)" d="M-2.2-.7h30v25.5h-30z" clip-path="url(#l)"/></g></mask><clipPath id="n"><path d="M-2.2-.7h30v25.5h-30z"/></clipPath><clipPath id="o" clip-path="url(#n)"><path d="M-2.2-.7h30v25.5h-30z"/></clipPath><clipPath id="l" clip-path="url(#o)"><path d="M-2.2-.7h30v25.5h-30z"/></clipPath><linearGradient id="m" x1="0" x2="1" y1="52.979" y2="52.979" gradientTransform="matrix(0 -25.5425 -25.5425 0 1366.066 24.825)" gradientUnits="userSpaceOnUse"><stop offset="0" stop-color="#231f20"/><stop offset=".462" stop-color="#231f20"/><stop offset=".544" stop-color="#464344"/><stop offset=".861" stop-color="#cac9c9"/><stop offset="1" stop-color="#fff"/></linearGradient><clipPath id="ai"><path d="M14.6 2.8h4.1v6.5h-4.1z"/></clipPath><filter id="p" width="16.7" height="20.9" x="37" y="0" filterUnits="userSpaceOnUse"><feFlood flood-color="#fff" result="back"/><feBlend in="SourceGraphic" in2="back"/></filter><mask id="ak" width="16.7" height="20.9" x="37" y="0" maskUnits="userSpaceOnUse"><g filter="url(#p)"><path fill="url(#r)" d="M5.5-.5h55v55h-55z" clip-path="url(#q)"/></g></mask><clipPath id="s"><path d="M30.6-.4h30v18.3h-30z"/></clipPath><clipPath id="t" clip-path="url(#s)"><path d="M30.6-.4h30v18.3h-30z"/></clipPath><clipPath id="q" clip-path="url(#t)"><path d="M30.6-.4h30v18.3h-30z"/></clipPath><linearGradient id="r" x1="0" x2="1" y1="52.979" y2="52.979" gradientTransform="matrix(0 18.3374 18.3374 0 -926.008 -.508)" gradientUnits="userSpaceOnUse"><stop offset="0" stop-color="#333132"/><stop offset=".731" stop-color="#fff"/><stop offset="1" stop-color="#fff"/></linearGradient><clipPath id="aj"><path d="M37 0h16.7v20.8H37z"/></clipPath><clipPath id="al"><path d="M50.9 0c-2.6 10.1-8.1 18.3-12.7 20.4-.1 0-.2.1-.2.1h-.8c.2.1.4.1.7.1 4.4 0 8.8-7.8 16.1-20.8h-3.1z"/></clipPath><linearGradient id="am" x1="0" x2="1" y1="52.979" y2="52.979" gradientTransform="matrix(0 -20.3713 -20.3713 0 1124.67 19.752)" gradientUnits="userSpaceOnUse"><stop offset="0" stop-color="#006db0"/><stop offset=".13" stop-color="#0a87c4"/><stop offset=".327" stop-color="#16a8de"/><stop offset=".491" stop-color="#1dbdee"/><stop offset=".6" stop-color="#20c4f4"/><stop offset="1" stop-color="#20c4f4"/></linearGradient><filter id="u" width="15.2" height="20.9" x="0" y=".5" filterUnits="userSpaceOnUse"><feFlood flood-color="#fff" result="back"/><feBlend in="SourceGraphic" in2="back"/></filter><mask id="an" width="15.2" height="20.9" x="0" y=".5" maskUnits="userSpaceOnUse"><g filter="url(#u)"><path fill="url(#w)" d="M-9.2-1.6h30v25.5h-30z" clip-path="url(#v)"/></g></mask><clipPath id="x"><path d="M-9.3-1.7h30v25.5h-30z"/></clipPath><clipPath id="y" clip-path="url(#x)"><path d="M-9.3-1.7h30v25.5h-30z"/></clipPath><clipPath id="v" clip-path="url(#y)"><path d="M-9.3-1.7h30v25.5h-30z"/></clipPath><linearGradient xlink:href="#f" id="w" x1="0" x2="1" y1="52.979" y2="52.979" gradientTransform="matrix(0 -25.5408 -25.5408 0 1358.978 23.913)" gradientUnits="userSpaceOnUse"/><clipPath id="ao"><path d="M0 .5h15.2v20.9H0z"/></clipPath><clipPath id="ap"><path d="M3.3 16.5C7.8 7.8 9.9 2.3 13.6.9 9.8 2.4 5.4 8.1 3.3 16.5"/></clipPath><linearGradient id="aq" x1="0" x2="1" y1="52.979" y2="52.979" gradientTransform="matrix(0 -20.8586 -20.8586 0 1113.438 20.194)" gradientUnits="userSpaceOnUse"><stop offset="0" stop-color="#008fd0"/><stop offset=".536" stop-color="#009ddb"/><stop offset="1" stop-color="#00a4e0"/></linearGradient><filter id="z" width="9.7" height="12.1" x="5" y="9.3" filterUnits="userSpaceOnUse"><feFlood flood-color="#fff" result="back"/><feBlend in="SourceGraphic" in2="back"/></filter><mask id="as" width="9.7" height="12.1" x="5" y="9.3" maskUnits="userSpaceOnUse"><g filter="url(#z)"><path fill="url(#B)" d="m29.1 8.9-58.6 104.8-104.8-58.6 58.6-104.8z" clip-path="url(#A)"/></g></mask><clipPath id="C"><path d="M-5.1 2.3h22.7v26.8H-5.1z"/></clipPath><clipPath id="D" clip-path="url(#C)"><path d="M-5.1 2.3h22.7v26.8H-5.1z"/></clipPath><clipPath id="A" clip-path="url(#D)"><path d="m-5.1 23 10.8 6L17.6 8.4 6.7 2.3z"/></clipPath><linearGradient id="B" x1="0" x2="1" y1="52.979" y2="52.979" gradientTransform="scale(-40.0195 40.0195) rotate(60.785 44.87 26.344)" gradientUnits="userSpaceOnUse"><stop offset="0" stop-color="#231f20"/><stop offset=".025" stop-color="#4c494a"/><stop offset=".054" stop-color="#767374"/><stop offset=".086" stop-color="#9b9999"/><stop offset=".12" stop-color="#bab9b9"/><stop offset=".157" stop-color="#d3d2d3"/><stop offset=".198" stop-color="#e7e6e6"/><stop offset=".244" stop-color="#f5f4f4"/><stop offset=".301" stop-color="#fdfdfd"/><stop offset=".4" stop-color="#fff"/><stop offset="1" stop-color="#fff"/></linearGradient><clipPath id="ar"><path d="M5 9.3h9.6v12.1H5z"/></clipPath><clipPath id="at"><path d="M5.3 21.4c-.1 0-.1 0 0 0h-.4c4.5-.1 6.6-2.4 7.6-5.7.8-2.5 1.4-4.6 2-6.4-1.9 2.7-3.8 5.9-5.7 9.4-.9 1.8-2.3 2.5-3.5 2.7"/></clipPath><linearGradient id="au" x1="0" x2="1" y1="52.979" y2="52.979" gradientTransform="matrix(0 -20.2757 -20.2757 0 1083.995 20.335)" gradientUnits="userSpaceOnUse"><stop offset="0" stop-color="#00a1e4"/><stop offset="1" stop-color="#00a1e4"/></linearGradient><clipPath id="av"><path d="M5.3 21.4c1.2-.2 2.6-.9 3.5-2.6 1.9-3.6 3.8-6.8 5.7-9.4.7-2.2 1.3-3.8 1.8-5.1-3.7 3.5-7.5 9.5-11 17.1"/></clipPath><linearGradient id="aw" x1="0" x2="1" y1="52.979" y2="52.979" gradientTransform="matrix(0 -17.1333 -17.1333 0 918.454 21.255)" gradientUnits="userSpaceOnUse"><stop offset="0" stop-color="#005da4"/><stop offset=".154" stop-color="#005da4"/><stop offset=".318" stop-color="#007bc0"/><stop offset=".5" stop-color="#00a1e4"/><stop offset=".569" stop-color="#05a2e4"/><stop offset=".651" stop-color="#14a6e4"/><stop offset=".74" stop-color="#2cace4"/><stop offset=".834" stop-color="#4eb5e4"/><stop offset=".918" stop-color="#72bee4"/><stop offset="1" stop-color="#72bee4"/></linearGradient><clipPath id="ax"><path d="M15.1.5c-.1 0-.1 0 0 0h-.5c-.1 0-.2 0-.2.1s0 0-.1 0h-.1c-.1 0-.1 0-.2.1h-.2C10 2.2 7.9 7.7 3.4 16.3c-.4 1.6-.7 3.2-.9 4.9h2.7c3.5-7.5 7.3-13.5 11.1-17.1.4-.9.8-1.7 1.3-2.2-.3-.4-.6-.8-.9-1.1s0 0-.1 0h-.8c-.1 0-.2 0-.2-.1h-.3c-.1-.2-.2-.2-.2-.2"/></clipPath><linearGradient id="ay" x1="0" x2="1" y1="52.979" y2="52.979" gradientTransform="scale(-18.8639 18.8639) rotate(-80 -31.228 27.382)" gradientUnits="userSpaceOnUse"><stop offset="0" stop-color="#005496"/><stop offset=".104" stop-color="#005496"/><stop offset="1" stop-color="#0083c5"/></linearGradient><clipPath id="az"><path d="M40.6 5.6c-.9 2.8-1.6 5-2.2 6.9 2.4-3.3 4.7-7.4 6.9-12.1-2.5.9-3.9 2.7-4.7 5.2"/></clipPath><linearGradient id="aA" x1="0" x2="1" y1="52.979" y2="52.979" gradientTransform="matrix(0 -9.7084 -9.7084 0 556.185 9.693)" gradientUnits="userSpaceOnUse"><stop offset="0" stop-color="#00a1e4"/><stop offset=".466" stop-color="#009fe1"/><stop offset=".781" stop-color="#0098d8"/><stop offset=".874" stop-color="#0095d4"/><stop offset="1" stop-color="#0095d4"/></linearGradient><filter id="E" width="19.7" height="24.7" x="34.8" y="-2" filterUnits="userSpaceOnUse"><feFlood flood-color="#fff" result="back"/><feBlend in="SourceGraphic" in2="back"/></filter><mask id="aC" width="19.7" height="24.7" x="34.8" y="-2" maskUnits="userSpaceOnUse"><g filter="url(#E)"><path fill="url(#G)" d="M30.1-1.8h31.4v31.4H30.1z" clip-path="url(#F)"/></g></mask><clipPath id="H"><path d="M31.4-1.8h30V8.7h-30z"/></clipPath><clipPath id="I" clip-path="url(#H)"><path d="M31.4-1.8h30V8.7h-30z"/></clipPath><clipPath id="F" clip-path="url(#I)"><path d="M31.4-1.8h30V8.7h-30z"/></clipPath><linearGradient xlink:href="#f" id="G" x1="0" x2="1" y1="52.979" y2="52.979" gradientTransform="matrix(0 10.4614 10.4614 0 -507.8 -1.773)" gradientUnits="userSpaceOnUse"/><clipPath id="aB"><path d="M38.2 0h12.7v20.4H38.2z"/></clipPath><clipPath id="aD"><path d="M38.5 20.2c-.1.1-.2.1-.4.2C42.8 18.3 48.3 10.1 50.9 0h-.5c-6.1 10.8-8 18-11.9 20.2"/></clipPath><linearGradient id="aE" x1="0" x2="1" y1="52.979" y2="52.979" gradientTransform="scale(-22.7323 22.7323) rotate(80 30.563 25.255)" gradientUnits="userSpaceOnUse"><stop offset="0" stop-color="#00a4e0"/><stop offset=".357" stop-color="#00a4e0"/><stop offset=".962" stop-color="#0089cf"/><stop offset="1" stop-color="#0089cf"/></linearGradient><clipPath id="aF"><path d="M48.7 0h-3c-.1.1-.1.3-.2.4-2.2 4.7-4.6 8.8-6.9 12.1-1.1 3.4-1.9 5.5-2.9 6.7.4.7.9 1.2 1.5 1.5h.7c.1 0 .2-.1.2-.1.1-.1.2-.1.4-.2C42.4 18 44.3 10.8 50.4 0z"/></clipPath><linearGradient id="aG" x1="0" x2="1" y1="52.979" y2="52.979" gradientTransform="matrix(0 21.1799 21.1799 0 -1079.227 -.115)" gradientUnits="userSpaceOnUse"><stop offset="0" stop-color="#008dcf"/><stop offset=".5" stop-color="#0087c8"/><stop offset=".63" stop-color="#0078b8"/><stop offset="1" stop-color="#00508f"/></linearGradient><filter id="J" width="10.1" height="6.5" x="14.4" y="-2.1" filterUnits="userSpaceOnUse"><feFlood flood-color="#fff" result="back"/><feBlend in="SourceGraphic" in2="back"/></filter><mask id="aH" width="10.1" height="6.5" x="14.4" y="-2.1" maskUnits="userSpaceOnUse"><g filter="url(#J)"><path fill="url(#L)" d="M10-6.3h12.7v8.8H10z" clip-path="url(#K)"/></g></mask><clipPath id="M"><path d="M10.1-.3h12.7v2.9H10.1z"/></clipPath><clipPath id="N" clip-path="url(#M)"><path d="M10.1-.3h12.7v2.9H10.1z"/></clipPath><clipPath id="K" clip-path="url(#N)"><path d="M10.1-.3h12.7v2.9H10.1z"/></clipPath><linearGradient id="L" x1="0" x2="1" y1="52.979" y2="52.979" gradientTransform="matrix(0 -2.9373 -2.9373 0 171.946 2.518)" gradientUnits="userSpaceOnUse"><stop offset="0" stop-color="#fff"/><stop offset=".157" stop-color="#f8f8f8"/><stop offset=".392" stop-color="#e3e4e5"/><stop offset=".674" stop-color="#c2c3c5"/><stop offset=".993" stop-color="#949699"/><stop offset="1" stop-color="#939598"/></linearGradient><clipPath id="aI"><path d="M14.8.5H24v2h-9.2z"/></clipPath><clipPath id="aJ"><path d="M15.3.5h.4c1 0 1.9.3 2.7.9.8-.7 1.9-.9 3.3-.9h-6.9z"/></clipPath><linearGradient id="aK" x1="0" x2="1" y1="52.979" y2="52.979" gradientTransform="matrix(4.8787 2.0235 2.0235 -4.8787 -91.386 257.832)" gradientUnits="userSpaceOnUse"><stop offset="0" stop-color="#8ccfec"/><stop offset=".111" stop-color="#84cdec"/><stop offset=".284" stop-color="#6ec9eb"/><stop offset=".497" stop-color="#4ac2ea"/><stop offset=".703" stop-color="#20bae8"/><stop offset="1" stop-color="#20bae8"/></linearGradient><clipPath id="aL"><path d="M21.6.5c-1.4 0-2.4.2-3.3.9.3.2.6.4.8.7 1.2-.7 2.3-1.2 3.5-1.5.4-.1.9-.1 1.3-.1h-2.3z"/></clipPath><linearGradient id="aM" x1="0" x2="1" y1="52.979" y2="52.979" gradientTransform="scale(4.2306 -4.2306) rotate(24.387 125.967 36.446)" gradientUnits="userSpaceOnUse"><stop offset="0" stop-color="#68c5ea"/><stop offset=".335" stop-color="#68c5ea"/><stop offset=".358" stop-color="#64c4ea"/><stop offset=".656" stop-color="#2ebaea"/><stop offset=".878" stop-color="#0db4ea"/><stop offset="1" stop-color="#00b2ea"/></linearGradient><filter id="O" width="11.1" height="17.1" x="34.5" y="-.1" filterUnits="userSpaceOnUse"><feFlood flood-color="#fff" result="back"/><feBlend in="SourceGraphic" in2="back"/></filter><mask id="aO" width="11.1" height="17.1" x="34.5" y="-.1" maskUnits="userSpaceOnUse"><g filter="url(#O)"><path fill="url(#Q)" d="M24.5-31.3h49.4v49.4H24.5z" clip-path="url(#P)"/></g></mask><clipPath id="R"><path d="M24.5 1.7h30v16.5h-30z"/></clipPath><clipPath id="S" clip-path="url(#R)"><path d="M24.5 1.7h30v16.5h-30z"/></clipPath><clipPath id="P" clip-path="url(#S)"><path d="M24.5 1.7h30v16.5h-30z"/></clipPath><linearGradient xlink:href="#f" id="Q" x1="0" x2="1" y1="52.979" y2="52.979" gradientTransform="matrix(0 -16.4743 -16.4743 0 912.312 18.135)" gradientUnits="userSpaceOnUse"/><clipPath id="aN"><path d="M34.6 0h11v17h-11z"/></clipPath><clipPath id="aP"><path d="M38.5 12.5c.6-1.9 1.3-4.2 2.2-6.9.8-2.5 2.2-4.4 4.8-5.2.1-.1.1-.3.2-.4-4.2.3-6.2 2.4-7.2 5.6-1.7 5.6-2.8 9.2-3.8 11.5 1.2-1.3 2.5-2.8 3.8-4.6"/></clipPath><linearGradient id="aQ" x1="0" x2="1" y1="52.979" y2="52.979" gradientTransform="matrix(0 20.7161 20.7161 0 -1057.567 1.002)" gradientUnits="userSpaceOnUse"><stop offset="0" stop-color="#00a5e5"/><stop offset="1" stop-color="#00a8e3"/></linearGradient><g clip-path="url(#T)"><path fill="url(#U)" d="M-48.5 3.7h76.9v76.9h-76.9z"/></g><g clip-path="url(#V)"><path fill="url(#W)" d="M-49.4 3.1h78.8v78.8h-78.8z"/></g><path fill="#005999" d="M24 .5c-.4 0-.9 0-1.3.1-1.1.2-2.3.7-3.5 1.5.3.3.6.7.9 1.1 1.2-1 2.4-1.7 3.6-2.2.4-.2.9-.3 1.3-.4-.3-.1-.7-.1-1-.1"/><g clip-path="url(#X)" mask="url(#Y)"><g clip-path="url(#Z)"><path fill="url(#aa)" d="M25-44.4h62.7v62.7H25z"/></g></g><g mask="url(#ab)"><path fill="#0091be" d="M25 .6c-.3-.1-.7-.1-1-.1h2.2c-.4 0-.8 0-1.2.1" clip-path="url(#ac)"/></g><path fill="#006cb6" d="M33.1 19.6c-.2-.2-.4-.4-.6-.7-1 .7-1.9 1.2-2.9 1.5.3.2.7.3 1.1.4.3.1.6.1.9.1 1.1 0 1.9-.1 2.6-.5-.4-.2-.8-.5-1.1-.8"/><g clip-path="url(#ad)"><path fill="url(#ae)" d="M-48.6.7h81.9v81.9h-81.9z"/></g><g clip-path="url(#af)"><path fill="url(#ag)" d="M20.2 1h12.3v19.5H20.2z"/></g><g mask="url(#ah)"><path fill="#00b8f1" d="M16.4 4.2c-.6 1.3-1.1 2.9-1.8 5.1 1.4-1.9 2.7-3.6 4.1-5-.2-.6-.4-1.1-.6-1.6-.6.5-1.1 1-1.7 1.5" clip-path="url(#ai)"/></g><path fill="#0078ae" d="M18.6 2.4c-.2.1-.3.2-.5.4.2.5.4 1 .6 1.6l.7-.7c-.2-.5-.5-.9-.8-1.3"/><path fill="#005e9c" d="M19.2 2c-.2.1-.4.3-.6.4.3.4.6.8.8 1.2L20 3c-.2-.3-.5-.7-.8-1"/><g clip-path="url(#aj)" mask="url(#ak)"><g clip-path="url(#al)"><path fill="url(#am)" d="M37.1-40.2h61.1v61.1H37.1z"/></g></g><g mask="url(#an)"><path fill="#00a0e3" d="M13.6.9s.1 0 0 0c.1 0 .1 0 0 0 .1-.1.1-.1 0 0h.2c.1 0 .1 0 .2-.1h.2c.1 0 .2 0 .2-.1h.7-.5C9.9.5 3.1 9.6 0 21.4h.6c1-1.7 1.9-3.4 2.7-4.9C5.4 8.1 9.8 2.4 13.6.9" clip-path="url(#ao)"/></g><path fill="#0082c5" d="M16.4 4.2c.6-.5 1.1-1 1.7-1.4-.1-.3-.3-.5-.4-.8-.5.6-.9 1.3-1.3 2.2m.4-3.3c.3.3.6.6.9 1.1l.3-.3c-.4-.3-.8-.6-1.2-.8z"/><g clip-path="url(#ap)"><path fill="url(#aq)" d="M3.2-46.2h62.6v62.6H3.2z"/></g><path fill="#007dc4" d="m17.9 1.7-.3.3c.1.2.3.5.4.8.2-.1.3-.2.5-.4-.1-.2-.3-.5-.6-.7"/><g clip-path="url(#ar)" mask="url(#as)"><g clip-path="url(#at)"><path fill="url(#au)" d="M5-39.4h60.8v60.8H5z"/></g></g><g clip-path="url(#av)"><path fill="url(#aw)" d="M5.2 4.1h11.1v17.1H5.2z"/></g><path fill="#00a0e3" d="M3.3 16.5C2.5 18 1.6 19.7.6 21.4h1.7c.3-1.7.6-3.4 1-4.9"/><g clip-path="url(#ax)"><path fill="url(#ay)" d="m2.5 24-9.8-55.7 55.7-9.8 9.9 55.7z"/></g><g clip-path="url(#az)"><path fill="url(#aA)" d="M38.4-16.6h29.1v29.1H38.4z"/></g><g clip-path="url(#aB)" mask="url(#aC)"><g clip-path="url(#aD)"><path fill="url(#aE)" d="M54.4.8 42.6 68l-67.2-11.9L-12.7-11z"/></g></g><path fill="#009ade" d="M35.5 19.3c1-1.2 1.8-3.3 2.9-6.7-1.3 1.8-2.6 3.3-3.9 4.5.4.8.7 1.6 1 2.2"/><path fill="#006cb6" d="M35.5 19.3c-.3.4-.7.7-1.1 1-.1.1-.2.1-.3.1.4.2.9.4 1.4.4h1.2c-.2-.3-.7-.8-1.2-1.5"/><path fill="#0060ae" d="M27 20.9c.4 0 .9 0 1.3-.1l1.2-.3c.3.2.7.3 1.1.4.3.1.6.1.9.1H27zm4.5 0c1.1 0 1.9-.1 2.6-.5.4.2.9.4 1.4.4h.4-4.4z"/><path fill="#0064b0" d="M36 20.9h.8c.2.1.4.1.7.1z"/><path fill="#0062a7" d="M34.6 17.1c-.5.4-.9.9-1.4 1.2-.2.2-.5.4-.7.6.2.2.4.5.6.7.3.3.7.6 1.1.8.1 0 .2-.1.3-.1.4-.2.8-.6 1.1-1-.4-.6-.7-1.4-1-2.2"/><g clip-path="url(#aF)"><path fill="url(#aG)" d="M-13.2-.1h63.5v63.5h-63.5z"/></g><g mask="url(#aH)"><path fill="#6dc3e8" d="M15.3.5h.3c.1 0 .2 0 .2.1h.8c.4.2.8.5 1.2.8l.4-.4c-.8-.6-1.7-.9-2.7-.9 0 .4-.1.4-.2.4" clip-path="url(#aI)"/><path fill="#37bde9" d="M17.9 1.7c.2.2.4.4.6.7.3-.1.5-.2.7-.4-.3-.3-.5-.5-.8-.7-.2.2-.3.3-.5.4" clip-path="url(#aI)"/><g clip-path="url(#aI)"><g clip-path="url(#aJ)"><path fill="url(#aK)" d="M15.7-2.1 21.9.4l-1.4 3.2-6.1-2.5z"/></g></g><g clip-path="url(#aI)"><g clip-path="url(#aL)"><path fill="url(#aM)" d="m17.7.9 11.6-5.2 5.2 11.6-11.6 5.2z"/></g></g></g><g clip-path="url(#aN)" mask="url(#aO)"><g clip-path="url(#aP)"><path fill="url(#aQ)" d="M-16.7-.1h62.1V62h-62.1z"/></g></g><path fill="#231f20" d="M44.9 27.5c.1 0 .2-.1.3-.2s.1-.2.1-.3 0-.2-.1-.3-.3-.1-.4-.1h-.4v1.6h.2v-.7h.1c.1 0 .2.1.3.3l.2.4h.3l-.2-.4c-.2-.2-.3-.3-.4-.3zm-.1-.2h-.2v-.5h.2c.1 0 .2 0 .3.1.1 0 .1.1.1.2-.1.1-.2.2-.4.2zm0-1.1c-.4 0-.7.1-.9.4-.2.2-.4.5-.4.9s.1.6.4.9c.2.2.5.3.9.3s.6-.1.9-.4c.2-.2.4-.5.4-.9s-.1-.7-.4-.9-.5-.3-.9-.3zm.8 2c-.2.2-.5.3-.8.3s-.6-.1-.8-.3-.3-.5-.3-.8.1-.6.3-.8.5-.3.8-.3.6.1.8.3.3.5.3.8-.1.6-.3.8zm-39.3-.8v-1.3c.1.3.1.5.2.7l2.2 5h.4l2.2-5c.1-.1.1-.3.2-.6 0 .5-.1.9-.1 1.3v4.4h.8v-6.5h-1l-2 4.5c-.1.2-.2.4-.3.8 0-.2-.1-.4-.3-.8l-2-4.6h-1v6.5h.7zm7.9-1.5c.1 0 .3 0 .3-.1.1-.1.1-.2.1-.3s0-.2-.1-.3c0-.2-.1-.2-.3-.2-.1 0-.2 0-.3.1s-.1.2-.1.3 0 .3.1.4.2.1.3.1zm-.3 5.9h.7v-4.7h-.7zm4.1.1c.5 0 .9-.1 1.3-.3v-.7c-.4.3-.7.4-1.1.4-.5 0-.9-.2-1.2-.5s-.4-.7-.4-1.3.2-1 .5-1.4c.3-.3.7-.5 1.2-.5.4 0 .8.1 1.1.4v-.8c-.4-.1-.8-.2-1.2-.2-.7 0-1.3.2-1.8.7-.4.5-.7 1.1-.7 1.9 0 .7.2 1.2.6 1.7.5.4 1 .6 1.7.6zm3.7-4.6c-.2.2-.4.4-.5.8v-1h-.7v4.7h.7v-2.4c0-.5.1-1 .4-1.3.2-.3.5-.4.8-.4.2 0 .4 0 .6.1V27c-.1 0-.2-.1-.4-.1-.5.1-.7.2-.9.4zm3.7 4.6c.7 0 1.3-.2 1.7-.7.4-.4.6-1 .6-1.8s-.2-1.3-.6-1.8c-.4-.4-.9-.6-1.6-.6s-1.3.2-1.7.6c-.5.4-.7 1.1-.7 1.9 0 .7.2 1.3.6 1.7.5.5 1 .7 1.7.7zm-1-3.8c.3-.3.7-.5 1.1-.5.5 0 .8.2 1.1.5s.4.8.4 1.4-.1 1-.4 1.3-.6.5-1.1.5-.9-.2-1.1-.5c-.3-.3-.4-.8-.4-1.3-.1-.6.1-1.1.4-1.4zm6.6 3.4c.3-.3.4-.6.4-.9s-.1-.6-.3-.9c-.2-.2-.5-.4-.9-.5-.4-.2-.6-.3-.7-.4s-.2-.3-.2-.5.1-.3.2-.5c.1-.1.3-.2.6-.2.4 0 .8.1 1.1.3v-.8c-.3-.1-.6-.2-1-.2-.5 0-.9.1-1.2.4s-.5.6-.5 1c0 .3.1.6.3.8s.4.4.8.5l.8.4c.1.1.2.3.2.5 0 .4-.3.7-.9.7-.4 0-.8-.1-1.2-.4v.8c.3.2.7.3 1.2.3.6 0 1-.1 1.3-.4zm5.2-.3c.4-.4.6-1 .6-1.8s-.2-1.3-.6-1.8c-.4-.4-.9-.6-1.6-.6s-1.3.2-1.7.6c-.5.4-.7 1.1-.7 1.9 0 .7.2 1.3.6 1.7s1 .7 1.7.7 1.2-.2 1.7-.7zM33 29.5c0-.6.1-1.1.4-1.4s.7-.5 1.1-.5c.5 0 .8.2 1.1.5s.4.8.4 1.4-.1 1-.4 1.3-.6.5-1.1.5-.9-.2-1.1-.5c-.3-.3-.4-.8-.4-1.3zm5 2.3h.7v-4h1.1v-.6h-1.1v-.7c0-.7.3-1 .8-1 .2 0 .3 0 .5.1v-.7c-.1-.1-.3-.1-.5-.1-.4 0-.7.1-1 .4s-.5.7-.5 1.2v.8h-.8v.6h.8zm3.1-1.3c0 .9.4 1.4 1.2 1.4.3 0 .5 0 .7-.2v-.6c-.1.1-.3.2-.5.2s-.4-.1-.5-.2-.2-.4-.2-.7v-2.6H43v-.6h-1.2v-1.4c-.3.1-.5.2-.7.2v1.1h-.8v.6h.8zM1.3 48.6c-.4 0-.7.1-.9.4-.3.3-.4.6-.4 1s.1.7.4.9c.3.3.6.4.9.4.4 0 .7-.1 1-.4s.4-.6.4-.9c0-.4-.1-.7-.4-1-.3-.2-.6-.4-1-.4zM17.4 46c0 1.2 0 2 .1 2.5-.1-.2-.4-.6-.7-1.1L8.2 33.9H5.6V51h2V38.7c0-1.2 0-2-.1-2.4h.1c.2.4.3.7.5 1.1L16.9 51h2.4V33.9h-2V46zm7.8-2.7h6.2v-1.8h-6.2v-5.7h6.7V34h-8.7v17.1h9.1v-1.8h-7.1zm8.9-7.5H39v15.3h2V35.8h5V34H34.1zM44 20.9h.2v-1.5h.5v-.2h-1.2v.2h.5zm2.4-1.7-.5 1.2s0 .1-.1.2 0-.1-.1-.2l-.5-1.2h-.3v1.7h.2v-1.4c0 .1 0 .1.1.2l.6 1.3h.1l.6-1.3s0-.1.1-.2v1.4h.2v-1.7z"/></svg>