<svg xmlns="http://www.w3.org/2000/svg" xml:space="preserve" id="svg2872" x="0" y="0" style="enable-background:new 0 0 800 312.3" version="1.1" viewBox="0 0 800 312.3"><style>.st1{fill:#ff7f2a;stroke:#d45500;stroke-width:.744}</style><switch><g><g id="layer1" transform="translate(-233.355 -390.718)"><g id="g3025" transform="translate(-278.45 -403.83) scale(8.45197)"><radialGradient id="path5874_1_" cx="87.304" cy="77.121" r="164.181" gradientTransform="matrix(1.9367 -2.1047 -6.4603 -7.0206 400.838 851.013)" gradientUnits="userSpaceOnUse"><stop offset="0" style="stop-color:#008cbe"/><stop offset="1" style="stop-color:#b2ffff"/></radialGradient><path id="path5874" d="M66.6 97.8c-5.7 6.2-4.3 17.8 3.1 25.9s18.1 9.6 23.8 3.4c5.7-6.2 4.3-17.8-3.1-25.9-7.4-8.1-18-9.6-23.8-3.4zm5.2 2.6c4.5-4.9 12.8-3.8 18.5 2.4C96 109 97 118 92.5 122.9c-4.5 4.9-12.8 3.8-18.5-2.4-5.7-6.2-6.7-15.2-2.2-20.1z" style="fill:url(#path5874_1_)"/><path id="rect5876" d="M88.4 100.1h3.1c.5 0 .8.4.8.8v3.1c0 .5-.4.8-.8.8h-3.1c-.5 0-.8-.4-.8-.8v-3.1c-.1-.5.3-.8.8-.8z" class="st1"/><path id="rect5878" d="M62.6 106.4h7.3c1.1 0 2 .9 2 2v7.3c0 1.1-.9 2-2 2h-7.3c-1.1 0-2-.9-2-2v-7.3c0-1.1.8-2 2-2z" class="st1"/><path id="rect5880" d="M90.9 121.2h4.4c.7 0 1.2.5 1.2 1.2v4.4c0 .7-.5 1.2-1.2 1.2h-4.4c-.7 0-1.2-.5-1.2-1.2v-4.4c0-.7.6-1.2 1.2-1.2z" class="st1"/></g></g><path d="M446.1 149.5c0 15.3-3.8 27.1-11.4 35.4-7.6 8.2-18.5 12.4-32.7 12.4-14.2 0-25.1-4.1-32.7-12.4-7.6-8.2-11.4-20.1-11.4-35.5 0-15.4 3.8-27.2 11.4-35.3 7.6-8.1 18.6-12.2 32.8-12.2 14.2 0 25.1 4.1 32.7 12.3 7.5 8.2 11.3 20 11.3 35.3zm-67.6 0c0 10.4 2 18.1 5.9 23.4 3.9 5.2 9.8 7.9 17.6 7.9 15.7 0 23.5-10.4 23.5-31.2 0-20.9-7.8-31.3-23.4-31.3-7.8 0-13.7 2.6-17.7 7.9s-5.9 13-5.9 23.3zm114 47.8c-22.1 0-33.1-12.1-33.1-36.3 0-12 3-21.2 9-27.6 6-6.4 14.6-9.5 25.8-9.5 8.2 0 15.5 1.6 22.1 4.8l-5.7 15c-3-1.2-5.9-2.2-8.5-3-2.6-.8-5.2-1.2-7.9-1.2-10.1 0-15.1 7.1-15.1 21.4 0 13.9 5 20.8 15.1 20.8 3.7 0 7.2-.5 10.3-1.5 3.2-1 6.3-2.5 9.5-4.7V192c-3.1 2-6.3 3.4-9.5 4.1-3.1.8-7.1 1.2-12 1.2zm67.8-15.4c3.4 0 7.4-.7 12.2-2.2V194c-4.8 2.2-10.7 3.2-17.7 3.2-7.7 0-13.4-2-16.9-5.9-3.5-3.9-5.3-9.8-5.3-17.6v-34.2h-9.3v-8.2L534 125l5.6-15H552v15.1h19.8v14.5H552v34.2c0 2.7.8 4.8 2.3 6.1 1.5 1.3 3.5 2 6 2zm71.5 14.1-3.7-9.6h-.5c-3.3 4.1-6.6 6.9-10 8.5-3.4 1.6-7.9 2.4-13.5 2.4-6.8 0-12.2-1.9-16.1-5.8-3.9-3.9-5.9-9.4-5.9-16.6 0-7.5 2.6-13.1 7.9-16.6 5.3-3.6 13.2-5.5 23.8-5.9l12.3-.4v-3.1c0-7.2-3.7-10.8-11-10.8-5.7 0-12.3 1.7-20 5.1l-6.4-13.1c8.2-4.3 17.2-6.4 27.1-6.4 9.5 0 16.8 2.1 21.9 6.2 5.1 4.1 7.6 10.4 7.6 18.9V196h-13.5zm-5.7-32.8-7.5.3c-5.6.2-9.8 1.2-12.5 3-2.7 1.9-4.1 4.7-4.1 8.5 0 5.4 3.1 8.2 9.4 8.2 4.5 0 8.1-1.3 10.7-3.9 2.7-2.6 4-6 4-10.3v-5.8zm56 32.8-27-70.8h20.2l13.7 40.4c1.5 5.1 2.5 9.9 2.9 14.5h.4c.2-4.1 1.2-8.9 2.9-14.5l13.6-40.4H729L702 196h-19.9zm89 1.3c-11.4 0-20.3-3.1-26.7-9.4-6.4-6.3-9.6-15.2-9.6-26.7 0-11.9 3-21 8.9-27.5s14.1-9.7 24.6-9.7c10 0 17.8 2.9 23.4 8.6 5.6 5.7 8.4 13.6 8.4 23.6v9.4h-45.7c.2 5.5 1.8 9.8 4.9 12.9 3 3.1 7.3 4.6 12.8 4.6 4.3 0 8.3-.4 12.1-1.3 3.8-.9 7.8-2.3 11.9-4.2v15c-3.4 1.7-7 2.9-10.8 3.8-4 .5-8.7.9-14.2.9zm-2.7-59.7c-4.1 0-7.3 1.3-9.6 3.9-2.3 2.6-3.7 6.3-4 11.1h27.1c-.1-4.8-1.3-8.5-3.7-11.1-2.5-2.6-5.7-3.9-9.8-3.9z" style="fill:#0c94c2"/></g></switch></svg>