<svg xmlns="http://www.w3.org/2000/svg" viewBox="0 0 110.44 76.5"><g data-name="Layer 2"><g data-name="Layer 1"><path d="M0 0h110.44v76.5H0z" style="fill:none"/><path d="M22.45 29.61c3.46 0 5.69.61 6.81 1.93s1.42 3.46.81 6.5-1.83 5.49-3.56 6.81-4.47 2-8.13 2H12.9l3.35-17.28ZM.6 64.37h8.94l2.13-11h7.73a27.07 27.07 0 0 0 8.33-1.12 16.48 16.48 0 0 0 6-3.56 19.06 19.06 0 0 0 3.66-4.57 19.71 19.71 0 0 0 2-5.49c.91-4.88.2-8.74-2.13-11.38s-6.2-4.07-11.38-4.07H8.63L.6 64.37ZM46 12.13h9l-2.13 11h7.93c5 0 8.44.91 10.37 2.64s2.44 4.57 1.73 8.44l-3.8 19.18h-9l3.51-18.19c.41-2 .3-3.46-.41-4.27s-2.2-1.12-4.47-1.12h-7.11L47 53.39h-8.9L46 12.13Zm46.58 17.48c3.46 0 5.69.61 6.81 1.93s1.42 3.46.81 6.5-1.83 5.49-3.56 6.81-4.47 2-8.13 2H83l3.35-17.28ZM70.73 64.37h8.94l2.13-11h7.72a27.07 27.07 0 0 0 8.33-1.12 16.48 16.48 0 0 0 6-3.56 19.06 19.06 0 0 0 3.66-4.57 19.71 19.71 0 0 0 2-5.49c.91-4.88.2-8.74-2.13-11.38s-6.2-4.07-11.38-4.07H78.76l-8 41.16Z" style="fill:#6082bb"/></g></g></svg>