<svg xmlns="http://www.w3.org/2000/svg" viewBox="0 0 221.1 170"><path fill="#b0b1b5" d="M110.5 0C49.5 0 0 33.2 0 74.3s49.5 74.3 110.5 74.3S221 115.4 221 74.3 171.6 0 110.5 0zm15 130.4c-45.1 0-81.7-22.6-81.7-50.5s36.6-50.5 81.7-50.5 81.7 13.6 81.7 50.5-36.5 50.5-81.7 50.5z"/><path fill="#1f65b8" d="M186.4 125.8c-2.3-4.2-10.9-9.4-17.6-10.4 20.9-5.6 32.1-15.1 32.1-37.7S177.4 47 165.2 47H91.1v123h37.1v-48.2h10.6c5.8 0 7.8 4.1 31.1 48.2h42s-23.2-40-25.5-44.2zm-33.6-32.1h-24.4V73.4h24.4c5.2 0 9.3 4.2 9.3 10.1s-4.1 10.2-9.3 10.2z"/></svg>