<svg xmlns="http://www.w3.org/2000/svg" xml:space="preserve" viewBox="0 0 758.332 170"><switch><g><path fill="#C40022" d="M81.243 44.275c-3.267 6.533-1.64 11.973 2.72 11.973s10.886-4.9 14.146-11.426c3.26-6.526 1.64-11.973-2.72-11.973-4.353-.547-10.887 4.899-14.146 11.426zm37.551-23.399c-2.72 8.166-7.073 16.879-11.973 23.399-9.793 14.146-23.399 22.859-30.479 20.139-7.62-3.267-5.44-17.412 3.806-31.572a54.87 54.87 0 0 1 7.073-8.706l-9.253 1.64c-32.119 39.732-45.786 90.889-43.531 136.607-19.046-7.62-32.652-26.126-34.285-49.524-2.72-41.358 29.932-83.81 73.463-94.696 16.333-3.806 32.119-2.72 45.103 2.72l.076-.007z"/><path d="m106.89 132.451-9.793 5.986c-.547-9.793-2.72-19.592-6.533-27.759-9.793-21.226-27.212-22.859-38.638-3.806-7.073 11.973-10.34 28.839-9.253 45.103 11.973 3.806 26.126 4.353 40.818.547 43.053-10.886 76.197-53.331 73.463-94.696-1.64-36.465-30.479-59.864-66.397-57.691-3.267 3.806-6.533 7.073-9.793 10.886 21.226-2.72 38.098 1.64 48.978 10.34-38.098 54.424-33.199 84.896-22.859 111.022 0-.547 0-.547 0 0l.007.068zm355.377-61.504c9.253 0 15.718 2.187 19.046 3.806l-3.267 16.401c-3.806-2.187-9.793-4.353-16.879-4.353-5.44 0-9.253 2.187-9.253 6.533 0 2.72 2.72 5.44 8.706 8.166 7.62 3.806 16.879 9.793 16.879 20.139 0 7.073-2.187 12.52-6.533 16.879-5.986 5.986-15.718 9.253-27.212 9.253-8.706 0-17.959-2.72-22.312-5.986l3.267-16.401c4.9 3.267 14.146 6.533 21.226 6.533 5.44 0 9.253-2.72 9.253-6.533s-2.72-5.986-9.253-9.253c-10.34-5.44-15.718-11.973-15.718-19.592 0-15.718 12.984-25.579 32.119-25.579l-.069-.013zm-121.368 0a44.69 44.69 0 0 1 15.239 2.72l-3.267 17.412c-3.267-1.64-7.073-2.72-11.973-2.72-15.718 0-25.032 13.668-25.032 26.665 0 10.886 7.62 15.239 14.146 15.239 5.986 0 11.426-1.093 17.959-4.9l-3.267 17.959c-4.9 2.187-12.984 3.806-20.679 3.806-19.046 0-31.025-11.973-31.025-29.932 0-26.126 20.679-46.265 47.891-46.265l.008.016zm-88.156 20.679c-5.986 5.986-10.34 16.879-10.34 25.579 0 7.62 2.72 12.519 7.62 12.519 8.166 0 14.693-8.166 17.412-20.679l1.64-8.166c.547-2.72.547-4.9.547-5.986 0-5.44-2.72-8.166-7.62-8.166-3.806.547-6.533 2.187-9.253 4.9h-.006zm7.62 54.424.547-3.267c.547-2.72 2.72-7.073 3.806-8.166.547-.547 0-1.64-.547-1.64-.547-.547-1.64 0-1.64.547v.547c-.547 1.64-1.093 5.44-4.353 8.166-4.353 3.806-10.34 6.533-16.879 6.533-14.693 0-21.226-12.984-21.226-25.579 0-14.693 5.986-29.385 15.239-38.638a41.548 41.548 0 0 1 29.932-12.519c8.706 0 15.239 2.72 19.592 7.62 5.986 7.62 5.44 18.506 3.806 26.665l-7.62 41.358-20.679-1.64.022.013zm253.055-14.692c11.426 0 20.139-16.401 20.139-30.479 0-3.267-.547-11.973-8.706-11.973s-15.239 9.253-17.412 23.399c-1.64 4.353-3.806 19.046 5.986 19.046l-.007.007zm19.046-60.411c14.693 0 23.946 10.886 23.946 28.292 0 17.959-8.706 36.465-23.946 44.625-11.973 6.533-22.859 4.9-28.292.547-1.093-1.093-1.64-3.806-1.64-4.9 0-.547-1.093-1.093-1.64-.547-.547 0-1.093 1.093-1.093 1.64 1.093 1.64 1.64 3.267 1.64 4.9l-4.9 24.492h-21.766l18.451-97.955h19.046l-1.093 3.267c-1.093 5.44-2.72 7.62-3.806 8.706-.547.547 0 1.64.547 1.64.547.547 1.64.547 1.64-.547.547-1.64 1.64-5.44 4.9-8.166 5.44-3.806 11.426-5.986 17.959-5.986l.047-.008zM370.312 46.455h21.766l-11.426 58.771 28.839-33.199h23.399l-29.932 33.745 18.506 39.732h-23.406l-17.412-38.638-7.62 39.185h-21.848l19.046-99.596c-.547 0 0 0 0 0h.088zM223.898 70.4c1.093 0 2.72 0 3.806.547l-4.353 21.226c-.547 0-2.187-.547-3.267-.547-14.693 0-20.679 14.693-22.859 26.665l-5.44 28.292h-21.704l14.146-74.488h19.046l-1.093 4.9c-1.093 4.9-2.187 7.62-3.267 8.706-.547.547 0 1.64.547 1.64s1.64 0 1.64-.547c.547-1.64 1.093-4.9 4.353-8.166 5.44-4.9 11.973-8.166 18.506-8.166l-.061-.062zm513.75 22.313c0-3.806-3.266-5.986-7.62-5.986-7.073 0-12.52 4.353-15.239 9.793-2.187 3.806-2.72 4.353-4.353 5.44-.547.547-.547 1.64 0 1.64.547.547 1.093.547 1.64.547 1.64-1.64 1.64-2.72 7.62-2.72 8.706-.547 14.146-1.64 16.879-4.353.547-1.093 1.093-2.187 1.093-4.353l-.02-.008zm-29.932 22.859c2.187 1.64 3.267 4.353 3.267 5.44.547 1.64 1.093 2.72 1.64 3.806 2.72 3.806 7.62 5.44 14.146 5.44 9.253 0 16.879-2.187 25.579-7.073l-3.267 17.959c-10.34 5.44-22.859 5.986-27.212 5.986-20.139 0-32.119-11.426-32.119-31.025 0-11.426 4.353-22.859 11.426-31.572 8.166-9.253 19.046-14.693 31.572-14.693 15.239 0 25.579 8.706 25.579 22.312 0 5.986-2.187 11.426-5.986 15.239-6.533 6.533-18.506 9.793-36.465 9.793-4.353 0-5.44-2.187-5.986-3.806-.547-.547-1.64-.547-1.64 0-1.093.547-1.093 1.64-.547 2.187l.013.007zm-29.385-44.625c5.44 0 11.426 1.093 15.239 2.72l-3.267 17.412c-3.266-1.64-7.073-2.72-11.973-2.72-15.718 0-25.032 13.668-25.032 26.665 0 10.886 7.62 15.239 14.146 15.239 5.986 0 11.426-1.093 17.959-4.9l-3.266 17.959c-4.9 2.187-12.984 3.806-20.679 3.806-19.046 0-31.025-11.973-31.025-29.932 0-26.126 20.679-46.265 47.891-46.265l.007.016zm-88.176 20.679c-5.986 5.986-10.34 16.879-10.34 25.579 0 7.62 2.72 12.519 7.62 12.519 8.166 0 14.693-8.166 17.412-20.679l1.64-8.166c.547-2.72.547-4.9.547-5.986 0-5.44-2.72-8.166-7.62-8.166a17.149 17.149 0 0 0-9.253 4.9h-.006zm8.166 54.424.547-3.267c.547-2.72 3.267-7.073 3.806-8.166.547-.547 0-1.64-.547-1.64-.547-.547-1.64 0-1.64.547v.547c-.547 1.64-1.093 5.44-4.353 8.166-4.353 3.806-10.34 6.533-16.879 6.533-14.693 0-21.226-12.984-21.226-25.579 0-14.693 5.986-29.385 15.239-38.638A41.548 41.548 0 0 1 603.2 72.034c8.706 0 15.239 2.72 19.592 7.62 5.986 7.62 5.44 18.506 3.806 26.665l-7.62 41.358-20.657-1.627z"/></g></switch></svg>