<svg xmlns="http://www.w3.org/2000/svg" viewBox="0 0 198.81 212.93"><defs><style>.cls-1{fill:#4dc8ed}</style></defs><g id="Layer_2" data-name="Layer 2"><g id="Layer_1-2" data-name="Layer 1"><path d="M101.15 195.31v16.22c0 .77-.22 1-1 1-1.72 0-1.72 0-1.72-1.7v-18.29c0-.78.19-1 1-1 2.76 0 2.76 0 4.13 2.56L111 208c.12.22.16.52.58.67v-16.05c0-.91.22-1.33 1.17-1.17a.92.92 0 0 0 .3 0c.94-.16 1.26.17 1.25 1.18-.05 5.29 0 10.57 0 15.86v3.23c0 .51-.15.69-.68.72-3 .16-3 .17-4.42-2.5q-3.77-7.14-7.56-14.27c-.08-.15-.17-.28-.25-.43Zm61.3 14.55c1.55-4.16 3-8.15 4.53-12.14.14-.36.14-.9.63-.94a8.15 8.15 0 0 1 2.2 0c.33.06 0 .53-.07.78-1 2.71-2 5.41-3 8.11-.76 2-1.54 4-2.26 6a.93.93 0 0 1-1 .74c-2.77.06-2.76.07-3.74-2.57q-2.25-6-4.54-12.07c-.42-1.11-.42-1.11.73-1.11 1.62 0 1.61 0 2.17 1.53q2 5.34 4 10.67c.02.33.15.56.35 1Zm-81.94-5.97v4.24c0 1.57.61 2.09 2.18 2.13h1.72c1.29 0 1.73.63 1.35 1.86-.09.3-.29.34-.53.33a28.57 28.57 0 0 1-3.53-.07c-2.76-.38-3.77-1.64-3.81-4.62q-.05-4 0-8.07c0-.75-.2-1.08-1-.95s-.94-.3-.92-1 0-1.17.89-1 1-.26 1-1v-2.62c0-.59.14-.84.79-.82 2.28.06 1.78-.24 1.84 1.78a11.94 11.94 0 0 1 0 1.71c-.1.84.27 1 1 1 1.17-.05 2.36 0 3.53 0 .92 0 .69.59.72 1.08s0 1-.75 1c-1.24-.05-2.49 0-3.73 0-.62 0-.82.2-.8.81v4.34Zm59.42.11a33 33 0 0 0 .15 4.73c.24 1.18.65 1.52 1.85 1.57h2.63c.88 0 .7.52.63 1s.39 1.21-.54 1.23a18 18 0 0 1-4.32-.21 3.42 3.42 0 0 1-2.85-3.32c-.29-2.65-.1-5.31-.16-8a10.06 10.06 0 0 1 0-1.31c.08-.72-.23-1-.92-.89-.9.16-.94-.36-1-1.06s.17-1.09 1-1 1-.27.93-1 0-1.68 0-2.52c0-.67.16-1 .9-1 2.1.06 1.66-.2 1.73 1.7 0 .87-.36 2 .16 2.54s1.72.15 2.61.21a6.79 6.79 0 0 0 1.41 0c.92-.12 1.15.26 1.12 1.13 0 .71-.23.94-.94.91h-3.64c-.58 0-.76.2-.74.76.06 1.42-.01 2.8-.01 4.53Zm-66.5-4.34a21.81 21.81 0 0 0-3.35-1c-3.55-.48-6 1.47-6.32 5.05a9.45 9.45 0 0 0 .25 3.2c.76 2.85 3.32 4.28 6.47 3.65a11.64 11.64 0 0 0 2.39-.79c.36-.16.52-.15.58.32.19 1.53 0 2-1.55 2.34-3 .73-5.87.76-8.36-1.43a6.71 6.71 0 0 1-2.06-3.28 11 11 0 0 1-.06-6c1-3.53 3.85-5.5 7.68-5.34a14.14 14.14 0 0 1 3.27.51c.86.24 1.24.67 1.09 1.57a7.56 7.56 0 0 0-.03 1.2Z" class="cls-1"/><path d="M151.24 204.69v6.87c0 .68-.15 1-.88.93-2.06-.07-1.72.23-1.73-1.69v-12.92c0-.39-.23-1 .39-1.09a3.78 3.78 0 0 1 2.08.09c.25.11.13.49.13.75.01 2.37.01 4.71.01 7.06Z" style="fill:#4ec8ee"/><path d="M148.63 192.23a5.86 5.86 0 0 0 0-.71c-.08-.64.14-.9.83-.88 2.18.07 1.73-.24 1.78 1.74v.71c.06.59-.13.91-.77.82h-.1c-2.07-.04-1.69.23-1.74-1.68Z" style="fill:#50c8ee"/><path d="M198.58 85.6c-.87-4.9-3.7-8.69-7.17-12-5.84-5.6-12.84-9.38-20.22-12.53a116.39 116.39 0 0 0-14.48-5c-.66-.18-.85-.44-.64-1.09s.36-1.43.53-2.15a104.7 104.7 0 0 0 2.92-22.94 61.06 61.06 0 0 0-.61-9A34.07 34.07 0 0 0 155 8.4a15.35 15.35 0 0 0-9.61-7.8 21.84 21.84 0 0 0-10.19 0C128.79 2 123 4.88 117.58 8.38a104.28 104.28 0 0 0-17.36 14.1c-.55.55-.87.6-1.43 0-1.65-1.73-3.45-3.31-5.26-4.87A85.83 85.83 0 0 0 72.1 3.57C67.06 1.36 61.84-.12 56.26.27A14.81 14.81 0 0 0 46.14 4.9a22.77 22.77 0 0 0-5 9.32c-2.2 7.32-2.16 14.8-1.55 22.3a105.37 105.37 0 0 0 3.3 18.32c.21.8-.13 1-.77 1.14A101 101 0 0 0 17.46 66 45 45 0 0 0 4 77.32C-1.11 84-1.32 91.14 3.37 98.09a40.49 40.49 0 0 0 11 10.58c8.35 5.74 17.63 9.46 27.31 12.24 1.27.37 1.28.34 1 1.58a107 107 0 0 0-3.5 23.16 58.18 58.18 0 0 0 .55 10.06 33.73 33.73 0 0 0 3.73 12.06 15.79 15.79 0 0 0 9 7.79 21.59 21.59 0 0 0 10.66.43 51.87 51.87 0 0 0 17.31-7 99.77 99.77 0 0 0 18.77-14.74c.47-.46.73-.58 1.25 0 2.16 2.22 4.48 4.27 6.84 6.27a83.7 83.7 0 0 0 17.11 11.54c5.42 2.67 11 4.65 17.2 4.43a15.09 15.09 0 0 0 10.75-4.61 24.82 24.82 0 0 0 5.79-10.94c1.88-6.83 2.07-13.8 1.58-20.81-.14-2-.41-3.94-.67-5.9a102.84 102.84 0 0 0-2.54-12.73c-.15-.57 0-.76.53-.9q1.85-.51 3.67-1.09c8.91-2.87 17.44-6.55 25.11-12A36.55 36.55 0 0 0 196.1 97a15.92 15.92 0 0 0 2.48-11.4Zm-95.15-59.52C110.9 18.77 119 12.26 128.56 7.9a29.06 29.06 0 0 1 12.53-3 10.57 10.57 0 0 1 9.4 5.43A28.2 28.2 0 0 1 154 20.84a49.45 49.45 0 0 1 .66 7.54 106.54 106.54 0 0 1-3.28 25.39c-.15.61-.41.8-1 .65-4.92-1.22-9.9-2.14-14.91-2.91-3.48-.54-7-1-10.48-1.33l-2.51-.23a1.68 1.68 0 0 1-1.32-.78c-3.76-5.38-7.72-10.6-12-15.58-1.86-2.17-3.79-4.28-5.71-6.4-.38-.42-.45-.64-.02-1.11Zm-45.64 68c2.43 4.79 4.91 9.44 7.55 14s5.44 9 8.41 13.54c-3-.16-5.79-.54-8.61-.92-5.19-.71-10.35-1.55-15.45-2.75-.5-.12-.78-.15-.58-.81a202.35 202.35 0 0 1 8.4-22.56c.06-.16.16-.29.28-.51Zm-3.73-20.39Q51.43 67 49.31 60.08c-.24-.78 0-1 .68-1.16 6.27-1.37 12.57-2.54 18.94-3.3 1.5-.18 3-.38 4.75-.6a260.22 260.22 0 0 0-15.91 27.52c-1.38-2.98-2.56-5.91-3.71-8.85Zm11.07 24c-1.44-2.74-2.79-5.53-4.24-8.27a2.15 2.15 0 0 1 0-2.17 254.67 254.67 0 0 1 14.47-25.91c1.34-2.1 2.75-4.15 4.1-6.24a1.41 1.41 0 0 1 1.24-.68c5-.39 10.08-.49 15.12-.67 4.52-.15 9 .1 13.52.15 3 0 6 .37 9 .53a1.33 1.33 0 0 1 1.1.73c3.68 5.35 7.08 10.88 10.33 16.51q4.46 7.74 8.42 15.75a1.49 1.49 0 0 1 0 1.49 280 280 0 0 1-18.64 32.45 1.68 1.68 0 0 1-1.46.81c-6.35.46-12.7.66-19.47.6-4.1.08-8.61-.07-13.12-.25-1.64-.07-3.28-.24-4.93-.33a1.14 1.14 0 0 1-1-.61 240.75 240.75 0 0 1-14.44-23.93Zm76-3.88c1.54 3.31 2.9 6.49 4.19 9.69q2.58 6.41 4.68 13c.22.69.14 1-.64 1.15-5.31 1.2-10.64 2.24-16 2.93l-7.19.93a8.92 8.92 0 0 1-.91 0 297.22 297.22 0 0 0 15.91-27.74Zm0-11.26a295.26 295.26 0 0 0-15.95-27.45c5.4.6 10.57 1.34 15.72 2.29 2.67.5 5.33 1.08 8 1.67.8.18 1 .39.73 1.18-1.76 5.58-3.72 11.09-6 16.48-.78 1.84-1.63 3.7-2.5 5.79Zm-42.5-51.62c.72-.79 1.09-.71 1.76 0a197.73 197.73 0 0 1 14.41 17.68c.13.19.24.39.47.75a251.54 251.54 0 0 0-31.76 0c1.22-1.62 2.31-3.09 3.43-4.55 3.68-4.81 7.62-9.4 11.69-13.88Zm-54.55-1.8c0-6.06.51-12 3.28-17.56a10.89 10.89 0 0 1 10.59-6.51 32.35 32.35 0 0 1 13.26 3.43 79.37 79.37 0 0 1 17.53 11.43c2.36 2 4.62 4 6.82 6.15.47.45.43.66 0 1.09a201.3 201.3 0 0 0-17.8 21.9 1.94 1.94 0 0 1-1.57.9c-3.75.26-7.48.74-11.2 1.28-4.62.67-9.22 1.45-13.77 2.47-.92.2-1.85.37-2.75.62-.54.15-.78.07-.93-.52a126.15 126.15 0 0 1-2.83-14.52 72.82 72.82 0 0 1-.63-10.16Zm-.75 87.24A113.9 113.9 0 0 1 29 111.25a64.43 64.43 0 0 1-15.83-9.57C10 99 7.13 95.94 5.56 91.92a12.45 12.45 0 0 1-.76-3.73 14.06 14.06 0 0 1 3.54-8.59 41.93 41.93 0 0 1 12.1-9.77 98.66 98.66 0 0 1 23-9.21c.72-.2 1-.07 1.22.66A199.2 199.2 0 0 0 54.7 87.51a1.84 1.84 0 0 1-.08 1.7 207.35 207.35 0 0 0-9.37 24c-.27.83-.55 1.66-.76 2.51-.17.72-.49.85-1.16.65Zm52.45 34.46c-7 6.83-14.68 12.85-23.61 17.08a34.57 34.57 0 0 1-13.83 3.7c-5.52-.15-9.25-2.06-12-8.89a36.9 36.9 0 0 1-2.27-11.32c-.62-9.33 1-18.41 3.09-27.43.06-.26.17-.51.22-.78.11-.57.39-.77 1-.62 3.91 1 7.88 1.69 11.86 2.3 3.42.53 6.84 1 10.29 1.3 2.07.18 4.14.41 6.22.58a1.35 1.35 0 0 1 1 .71q4.68 6.58 9.8 12.82c2.61 3.17 5.33 6.24 8.13 9.25.51.47.64.78.1 1.3Zm4.59-4.77c-.46.5-.74.59-1.25 0A209 209 0 0 1 84 127.83c-.1-.13-.17-.27-.35-.55a310.18 310.18 0 0 0 31.69-.08 24.52 24.52 0 0 1-2.26 3.26 176.84 176.84 0 0 1-12.71 15.6Zm51.87 17c-1.38 3.3-3.24 6.23-6.71 7.7a14.79 14.79 0 0 1-8.63.57c-6.44-1.18-12.09-4.18-17.5-7.71a102.58 102.58 0 0 1-15.65-12.84c-.42-.41-.57-.66-.07-1.19a177.11 177.11 0 0 0 14.75-18.15c.9-1.26 1.84-2.49 2.66-3.8a2.07 2.07 0 0 1 1.81-1c3.82-.25 7.62-.73 11.41-1.27 5.52-.78 11-1.78 16.42-3.09.77-.19 1 0 1.16.73a99.61 99.61 0 0 1 2.84 16.45c.18 2.28.38 4.55.36 6.84-.09 5.7-.61 11.39-2.85 16.76Zm38.4-66.69c-3.7 4.73-8.53 8.07-13.69 11a100.56 100.56 0 0 1-21.06 8.58c-.75.22-1 0-1.2-.65a189.65 189.65 0 0 0-10.45-26.31 1.7 1.7 0 0 1 0-1.61 200.75 200.75 0 0 0 9.48-24.1c.22-.7.45-1.41.64-2.12.13-.48.29-.63.84-.47 9.87 2.83 19.42 6.41 27.89 12.38 3.82 2.69 7.29 5.76 9.52 10A11.35 11.35 0 0 1 194 88a14 14 0 0 1-3.36 8.37ZM24.27 211.73c-.91-1.77-1.78-3.55-2.68-5.32a8.78 8.78 0 0 0-3.13-3.73 6.49 6.49 0 0 0 2.25-1.56 5.81 5.81 0 0 0-3.3-9.27c-2.65-.57-5.36-.3-8-.38-.79 0-1 .19-1 1v18c0 2.11 0 2.09 2.09 2 .57 0 .75-.19.74-.76v-5.55c0-2.57 0-2.51 2.56-2.59a4.84 4.84 0 0 1 4.91 3 40.42 40.42 0 0 1 2 4.07c.58 1.65 1.63 2 3.21 1.86.62-.08.61-.26.35-.77ZM16 201.18a28.37 28.37 0 0 1-4.22.15c-.55 0-.57-.32-.57-.72v-6c0-.29-.07-.68.39-.66a20.41 20.41 0 0 1 4.72.18c1.87.5 2.66 1.69 2.57 3.78a3.27 3.27 0 0 1-2.89 3.27Zm40.62.18a5.12 5.12 0 0 0-3.85-4.57 12.42 12.42 0 0 0-7.61.56.57.57 0 0 0-.43.6v1.9a13.3 13.3 0 0 1 4.13-1.23c2.29-.34 4.43.55 5.09 2.18s.42 1.78-1.18 1.79a17.42 17.42 0 0 0-6 .57 4.8 4.8 0 0 0-3.25 4.93 4.56 4.56 0 0 0 3.73 4.62 6.35 6.35 0 0 0 6.92-2.44c.12 2.37.12 2.37 2 2.22h.1c.38 0 .55-.15.54-.54-.06-3.54.31-7.09-.19-10.59Zm-2.44 5.05c-.54 3-2.42 4.49-5.35 4.25a2.89 2.89 0 0 1-2.66-2.46 2.7 2.7 0 0 1 2-3.24 12.39 12.39 0 0 1 3.79-.38h.7c1.71 0 1.82.13 1.51 1.83Zm77.82-4.07a5.64 5.64 0 0 0-5.08-5.82 14.58 14.58 0 0 0-5.78.54c-.92.27-1.34.65-1.24 1.66s0 1.1 1 .69a9.53 9.53 0 0 1 5.61-.69 3.43 3.43 0 0 1 2.88 3c.05.65-.11.89-.81.89a31.65 31.65 0 0 0-5.24.18c-3.21.51-4.73 2.49-4.5 5.93.17 2.46 2.29 4.16 5.18 4.18a6.17 6.17 0 0 0 5.31-2.55c.15 2.22.15 2.2 1.92 2.16.56 0 .76-.17.76-.75-.01-3.15.09-6.29-.01-9.42Zm-7.25 8.33c-2.5 0-3.83-1.61-3.24-3.89a2.3 2.3 0 0 1 1.56-1.71 18.43 18.43 0 0 1 5.89-.49c.34 0 .45.19.47.51.27 3.16-1.94 5.79-4.66 5.59Zm-95.36-5.47h9.09c1.85 0 1.9 0 1.79-1.89-.14-2.58-1-4.87-3.43-6.1a7.57 7.57 0 0 0-7.52.28c-2.35 1.37-3.28 3.65-3.52 6.25-.31 3.47.87 7 4.47 8.45 3 1.23 6.07.72 9-.37a.53.53 0 0 0 .37-.54v-2l-.85.35a11.78 11.78 0 0 1-5.5 1 5 5 0 0 1-4.78-4.51c-.03-.65.13-.93.88-.92Zm-.79-2.61a4.67 4.67 0 0 1 4.69-4 4.19 4.19 0 0 1 4.28 3.25c.31 1.21.18 1.39-1.09 1.39h-7.25c-.44-.02-.69-.1-.63-.64Zm147.68 2.6c3 .07 5.92 0 8.89 0 1.88 0 1.93 0 1.83-1.86-.13-2.58-1-4.88-3.41-6.12a7.56 7.56 0 0 0-7.61.3c-2.3 1.37-3.22 3.62-3.45 6.18-.34 3.77 1 7.25 4.81 8.62a10.9 10.9 0 0 0 7 0c2.43-.75 2-.18 2-2.86 0 0 0-.06-.08-.16a12.94 12.94 0 0 1-5.91 1.34 5 5 0 0 1-5.08-4.29c-.11-.75-.01-1.18 1.01-1.15Zm-1-2.55c.18-2.18 2-3.8 4.55-4.07a4.14 4.14 0 0 1 4.38 3.11c.4 1.35.28 1.52-1.09 1.53H176c-.39-.01-.73.02-.69-.57Z" class="cls-1"/><path d="M99.46 70a18.09 18.09 0 1 1-18.15 18 18.06 18.06 0 0 1 18.15-18Z" class="cls-1"/></g></g></svg>